<svg width="20" height="20" viewBox="0 0 20 20" fill="none" xmlns="http://www.w3.org/2000/svg">
<path d="M10 0C4.47715 0 0 4.47715 0 10C0 15.5228 4.47715 20 10 20C15.5228 20 20 15.5228 20 10C19.9936 4.47982 15.5202 0.00642897 10 0Z" fill="#097EFF"/>
<path d="M15.7741 6.83362L10.07 14.5745C9.93392 14.7549 9.73107 14.8732 9.50698 14.9027C9.28289 14.9321 9.05636 14.8703 8.8783 14.7311L4.80496 11.4745C4.44552 11.1868 4.38731 10.6622 4.67496 10.3028C4.96261 9.94334 5.48718 9.88514 5.84663 10.1728L9.2433 12.8903L14.4325 5.84778C14.6026 5.59244 14.8993 5.45127 15.2048 5.48032C15.5103 5.50936 15.7751 5.70393 15.8941 5.98676C16.013 6.2696 15.967 6.59494 15.7741 6.83362Z" fill="white"/>
</svg>
