<svg width="586" height="371" viewBox="0 0 586 371" fill="none" xmlns="http://www.w3.org/2000/svg">
<rect width="586" height="370.319" rx="21.7037" fill="white"/>
<path d="M33.3217 40.8406V38.7432H44.3412V40.8406H40.0723V52.5547H37.5906V40.8406H33.3217ZM45.282 52.5547V42.1961H47.6491V43.9225H47.757C47.9458 43.3246 48.2695 42.8637 48.7281 42.54C49.1912 42.2118 49.7194 42.0477 50.3129 42.0477C50.4478 42.0477 50.5984 42.0545 50.7647 42.068C50.9356 42.077 51.0772 42.0927 51.1896 42.1152V44.3609C51.0862 44.3249 50.9221 44.2934 50.6973 44.2665C50.477 44.235 50.2634 44.2193 50.0566 44.2193C49.6115 44.2193 49.2114 44.3159 48.8562 44.5092C48.5055 44.6981 48.229 44.9611 48.0267 45.2983C47.8244 45.6355 47.7233 46.0244 47.7233 46.465V52.5547H45.282ZM55.6068 52.7637C54.9504 52.7637 54.3592 52.6469 53.8332 52.4131C53.3117 52.1748 52.8981 51.8241 52.5923 51.361C52.2911 50.8979 52.1405 50.327 52.1405 49.6481C52.1405 49.0636 52.2484 48.5803 52.4642 48.1981C52.68 47.816 52.9745 47.5103 53.3476 47.281C53.7208 47.0517 54.1412 46.8786 54.6087 46.7617C55.0808 46.6403 55.5686 46.5526 56.0722 46.4987C56.6791 46.4357 57.1714 46.3795 57.5491 46.3301C57.9267 46.2761 58.201 46.1952 58.3718 46.0873C58.5472 45.9749 58.6348 45.8018 58.6348 45.568V45.5276C58.6348 45.0195 58.4842 44.6261 58.183 44.3474C57.8818 44.0687 57.4479 43.9293 56.8814 43.9293C56.2835 43.9293 55.8092 44.0597 55.4585 44.3204C55.1123 44.5812 54.8785 44.8892 54.7571 45.2443L52.4777 44.9206C52.6575 44.2912 52.9543 43.7652 53.3679 43.3426C53.7815 42.9154 54.2873 42.5962 54.8852 42.3849C55.4832 42.1691 56.1441 42.0612 56.8679 42.0612C57.367 42.0612 57.8638 42.1197 58.3583 42.2366C58.8529 42.3535 59.3047 42.5468 59.7139 42.8165C60.123 43.0818 60.4512 43.4437 60.6985 43.9023C60.9502 44.3609 61.0761 44.9341 61.0761 45.622V52.5547H58.7293V51.1317H58.6483C58.5 51.4195 58.2909 51.6892 58.0211 51.941C57.7559 52.1883 57.4209 52.3883 57.0163 52.5412C56.6162 52.6896 56.1463 52.7637 55.6068 52.7637ZM56.2408 50.9699C56.7308 50.9699 57.1557 50.8732 57.5154 50.6799C57.875 50.4821 58.1515 50.2213 58.3449 49.8976C58.5427 49.5739 58.6416 49.221 58.6416 48.8388V47.6182C58.5652 47.6811 58.4348 47.7396 58.2504 47.7935C58.0706 47.8475 57.8683 47.8947 57.6435 47.9351C57.4187 47.9756 57.1961 48.0116 56.9758 48.043C56.7555 48.0745 56.5645 48.1015 56.4026 48.124C56.0384 48.1734 55.7125 48.2543 55.4248 48.3667C55.137 48.4791 54.91 48.6365 54.7436 48.8388C54.5773 49.0366 54.4941 49.2929 54.4941 49.6076C54.4941 50.0572 54.6582 50.3966 54.9864 50.6259C55.3146 50.8552 55.7327 50.9699 56.2408 50.9699ZM68.7776 42.1961V44.0844H62.6542V42.1961H68.7776ZM64.185 52.5547V41.2182C64.185 40.5214 64.3289 39.9414 64.6167 39.4783C64.9089 39.0152 65.3 38.6691 65.7901 38.4398C66.2801 38.2105 66.8241 38.0958 67.4221 38.0958C67.8447 38.0958 68.2201 38.1295 68.5483 38.197C68.8765 38.2644 69.1193 38.3251 69.2767 38.3791L68.7911 40.2674C68.6877 40.2359 68.5573 40.2044 68.4 40.1729C68.2426 40.137 68.0673 40.119 67.8739 40.119C67.4199 40.119 67.0984 40.2291 66.9096 40.4494C66.7252 40.6652 66.6331 40.9755 66.6331 41.3801V52.5547H64.185ZM75.9362 42.1961V44.0844H69.8128V42.1961H75.9362ZM71.3437 52.5547V41.2182C71.3437 40.5214 71.4875 39.9414 71.7753 39.4783C72.0675 39.0152 72.4586 38.6691 72.9487 38.4398C73.4388 38.2105 73.9828 38.0958 74.5807 38.0958C75.0033 38.0958 75.3787 38.1295 75.7069 38.197C76.0351 38.2644 76.2779 38.3251 76.4353 38.3791L75.9497 40.2674C75.8463 40.2359 75.7159 40.2044 75.5586 40.1729C75.4012 40.137 75.2259 40.119 75.0326 40.119C74.5785 40.119 74.257 40.2291 74.0682 40.4494C73.8839 40.6652 73.7917 40.9755 73.7917 41.3801V52.5547H71.3437ZM77.8481 52.5547V42.1961H80.2894V52.5547H77.8481ZM79.0755 40.7259C78.6889 40.7259 78.3562 40.5978 78.0774 40.3415C77.7987 40.0808 77.6593 39.7683 77.6593 39.4041C77.6593 39.0355 77.7987 38.723 78.0774 38.4667C78.3562 38.206 78.6889 38.0756 79.0755 38.0756C79.4667 38.0756 79.7994 38.206 80.0736 38.4667C80.3523 38.723 80.4917 39.0355 80.4917 39.4041C80.4917 39.7683 80.3523 40.0808 80.0736 40.3415C79.7994 40.5978 79.4667 40.7259 79.0755 40.7259ZM87.3182 52.757C86.2841 52.757 85.3962 52.53 84.6544 52.0759C83.917 51.6218 83.3483 50.9946 82.9482 50.1943C82.5525 49.3896 82.3547 48.4634 82.3547 47.4159C82.3547 46.3638 82.557 45.4354 82.9617 44.6306C83.3663 43.8214 83.9373 43.1919 84.6746 42.7424C85.4164 42.2883 86.2931 42.0612 87.3047 42.0612C88.1455 42.0612 88.8895 42.2163 89.5369 42.5266C90.1888 42.8323 90.7081 43.2661 91.0948 43.8281C91.4814 44.3856 91.7017 45.0375 91.7557 45.7838H89.4223C89.3279 45.2848 89.1031 44.8689 88.7479 44.5362C88.3972 44.199 87.9274 44.0304 87.3384 44.0304C86.8394 44.0304 86.401 44.1653 86.0234 44.4351C85.6457 44.7003 85.3512 45.0825 85.1399 45.5815C84.9331 46.0806 84.8297 46.6785 84.8297 47.3754C84.8297 48.0813 84.9331 48.6882 85.1399 49.1962C85.3467 49.6998 85.6367 50.0887 86.0099 50.3629C86.3876 50.6327 86.8304 50.7676 87.3384 50.7676C87.6981 50.7676 88.0196 50.7001 88.3028 50.5652C88.5905 50.4259 88.8311 50.2258 89.0244 49.965C89.2177 49.7043 89.3504 49.3873 89.4223 49.0142H91.7557C91.6972 49.747 91.4814 50.3966 91.1083 50.9631C90.7351 51.5251 90.2271 51.9657 89.5841 52.2849C88.9412 52.5996 88.1859 52.757 87.3182 52.757ZM98.5788 52.5547V38.7432H101.02V43.909H101.121C101.247 43.6573 101.425 43.3898 101.654 43.1065C101.883 42.8188 102.193 42.5738 102.585 42.3714C102.976 42.1646 103.475 42.0612 104.082 42.0612C104.882 42.0612 105.604 42.2658 106.247 42.6749C106.894 43.0795 107.407 43.6798 107.784 44.4755C108.166 45.2668 108.357 46.2379 108.357 47.3889C108.357 48.5263 108.171 49.493 107.798 50.2887C107.424 51.0845 106.916 51.6915 106.274 52.1096C105.631 52.5277 104.902 52.7368 104.089 52.7368C103.495 52.7368 103.003 52.6379 102.612 52.44C102.22 52.2422 101.906 52.0039 101.667 51.7252C101.434 51.4419 101.252 51.1744 101.121 50.9227H100.98V52.5547H98.5788ZM100.973 47.3754C100.973 48.0453 101.067 48.632 101.256 49.1355C101.449 49.6391 101.726 50.0325 102.086 50.3157C102.45 50.5945 102.89 50.7338 103.407 50.7338C103.947 50.7338 104.399 50.59 104.763 50.3022C105.127 50.01 105.401 49.6121 105.586 49.1086C105.774 48.6005 105.869 48.0228 105.869 47.3754C105.869 46.7325 105.777 46.1615 105.592 45.6625C105.408 45.1634 105.134 44.7723 104.77 44.489C104.405 44.2058 103.951 44.0642 103.407 44.0642C102.886 44.0642 102.443 44.2013 102.079 44.4755C101.715 44.7498 101.438 45.1342 101.249 45.6287C101.065 46.1233 100.973 46.7055 100.973 47.3754ZM111.598 56.4392C111.265 56.4392 110.957 56.4122 110.674 56.3582C110.395 56.3088 110.173 56.2503 110.006 56.1829L110.573 54.2811C110.928 54.3845 111.245 54.434 111.524 54.4295C111.802 54.425 112.047 54.3373 112.259 54.1665C112.475 54.0001 112.657 53.7214 112.805 53.3302L113.014 52.7705L109.258 42.1961H111.847L114.235 50.019H114.343L116.737 42.1961H119.333L115.186 53.809C114.992 54.3575 114.736 54.8274 114.417 55.2185C114.098 55.6142 113.706 55.9154 113.243 56.1222C112.785 56.3335 112.236 56.4392 111.598 56.4392ZM125.841 52.5547V38.7432H131.02C132.081 38.7432 132.971 38.9276 133.691 39.2962C134.415 39.6649 134.961 40.1819 135.33 40.8473C135.703 41.5082 135.889 42.2793 135.889 43.1605C135.889 44.0462 135.7 44.815 135.323 45.4669C134.95 46.1143 134.399 46.6156 133.671 46.9708C132.942 47.3214 132.047 47.4968 130.986 47.4968H127.298V45.4197H130.649C131.27 45.4197 131.778 45.3342 132.173 45.1634C132.569 44.9881 132.861 44.734 133.05 44.4013C133.243 44.0642 133.34 43.6505 133.34 43.1605C133.34 42.6704 133.243 42.2523 133.05 41.9061C132.857 41.5554 132.562 41.2902 132.167 41.1103C131.771 40.926 131.261 40.8338 130.636 40.8338H128.343V52.5547H125.841ZM132.976 46.2964L136.395 52.5547H133.603L130.245 46.2964H132.976ZM142.522 52.757C141.483 52.757 140.586 52.5412 139.831 52.1096C139.08 51.6735 138.503 51.0575 138.098 50.2618C137.693 49.4615 137.491 48.5196 137.491 47.4361C137.491 46.3706 137.693 45.4354 138.098 44.6306C138.507 43.8214 139.078 43.1919 139.811 42.7424C140.544 42.2883 141.405 42.0612 142.394 42.0612C143.032 42.0612 143.635 42.1646 144.201 42.3714C144.772 42.5738 145.276 42.8885 145.712 43.3156C146.152 43.7427 146.498 44.2867 146.75 44.9476C147.002 45.604 147.128 46.3863 147.128 47.2945V48.043H138.637V46.3975H144.788C144.783 45.93 144.682 45.5141 144.484 45.1499C144.286 44.7813 144.01 44.4913 143.655 44.28C143.304 44.0687 142.895 43.963 142.427 43.963C141.928 43.963 141.49 44.0844 141.112 44.3272C140.735 44.5654 140.44 44.8802 140.229 45.2713C140.022 45.658 139.916 46.0828 139.912 46.5459V47.9823C139.912 48.5848 140.022 49.1018 140.242 49.5334C140.463 49.9605 140.771 50.2887 141.166 50.518C141.562 50.7428 142.025 50.8552 142.556 50.8552C142.911 50.8552 143.232 50.8058 143.52 50.7069C143.808 50.6035 144.057 50.4528 144.269 50.255C144.48 50.0572 144.639 49.8122 144.747 49.5199L147.027 49.7762C146.883 50.3787 146.609 50.9047 146.204 51.3543C145.804 51.7994 145.291 52.1456 144.666 52.3928C144.041 52.6356 143.327 52.757 142.522 52.757ZM153.698 56.655C152.821 56.655 152.068 56.5358 151.439 56.2975C150.809 56.0637 150.304 55.749 149.922 55.3534C149.539 54.9578 149.274 54.5194 149.126 54.0383L151.324 53.5056C151.423 53.7079 151.567 53.908 151.756 54.1058C151.945 54.3081 152.199 54.4744 152.518 54.6048C152.842 54.7397 153.249 54.8071 153.739 54.8071C154.431 54.8071 155.004 54.6385 155.458 54.3014C155.912 53.9687 156.139 53.4202 156.139 52.6558V50.6934H156.018C155.892 50.9452 155.708 51.2037 155.465 51.4689C155.227 51.7342 154.91 51.9567 154.514 52.1366C154.123 52.3164 153.631 52.4063 153.037 52.4063C152.241 52.4063 151.52 52.2197 150.872 51.8466C150.23 51.4689 149.717 50.9069 149.335 50.1606C148.957 49.4098 148.768 48.4701 148.768 47.3417C148.768 46.2042 148.957 45.2443 149.335 44.462C149.717 43.6753 150.232 43.0795 150.879 42.6749C151.527 42.2658 152.248 42.0612 153.044 42.0612C153.651 42.0612 154.15 42.1646 154.541 42.3714C154.937 42.5738 155.251 42.8188 155.485 43.1065C155.719 43.3898 155.897 43.6573 156.018 43.909H156.153V42.1961H158.56V52.7233C158.56 53.609 158.349 54.3418 157.927 54.9218C157.504 55.5018 156.926 55.9356 156.193 56.2234C155.461 56.5111 154.629 56.655 153.698 56.655ZM153.718 50.4911C154.235 50.4911 154.676 50.3652 155.04 50.1134C155.404 49.8616 155.681 49.4997 155.87 49.0276C156.058 48.5556 156.153 47.9891 156.153 47.3282C156.153 46.6763 156.058 46.1053 155.87 45.6152C155.685 45.1252 155.411 44.7453 155.047 44.4755C154.687 44.2013 154.244 44.0642 153.718 44.0642C153.174 44.0642 152.72 44.2058 152.356 44.489C151.992 44.7723 151.718 45.1612 151.533 45.6557C151.349 46.1458 151.257 46.7033 151.257 47.3282C151.257 47.9621 151.349 48.5174 151.533 48.9939C151.722 49.466 151.999 49.8347 152.363 50.0999C152.732 50.3607 153.183 50.4911 153.718 50.4911ZM161.062 52.5547V42.1961H163.504V52.5547H161.062ZM162.29 40.7259C161.903 40.7259 161.57 40.5978 161.292 40.3415C161.013 40.0808 160.874 39.7683 160.874 39.4041C160.874 39.0355 161.013 38.723 161.292 38.4667C161.57 38.206 161.903 38.0756 162.29 38.0756C162.681 38.0756 163.014 38.206 163.288 38.4667C163.567 38.723 163.706 39.0355 163.706 39.4041C163.706 39.7683 163.567 40.0808 163.288 40.3415C163.014 40.5978 162.681 40.7259 162.29 40.7259ZM170.533 52.757C169.521 52.757 168.644 52.5345 167.902 52.0894C167.161 51.6443 166.585 51.0216 166.176 50.2213C165.771 49.421 165.569 48.4859 165.569 47.4159C165.569 46.3458 165.771 45.4084 166.176 44.6037C166.585 43.7989 167.161 43.174 167.902 42.7289C168.644 42.2838 169.521 42.0612 170.533 42.0612C171.544 42.0612 172.421 42.2838 173.163 42.7289C173.904 43.174 174.478 43.7989 174.882 44.6037C175.291 45.4084 175.496 46.3458 175.496 47.4159C175.496 48.4859 175.291 49.421 174.882 50.2213C174.478 51.0216 173.904 51.6443 173.163 52.0894C172.421 52.5345 171.544 52.757 170.533 52.757ZM170.546 50.8013C171.095 50.8013 171.553 50.6507 171.922 50.3494C172.29 50.0437 172.565 49.6346 172.745 49.1221C172.929 48.6095 173.021 48.0385 173.021 47.4091C173.021 46.7752 172.929 46.202 172.745 45.6894C172.565 45.1724 172.29 44.761 171.922 44.4553C171.553 44.1496 171.095 43.9967 170.546 43.9967C169.984 43.9967 169.516 44.1496 169.143 44.4553C168.775 44.761 168.498 45.1724 168.314 45.6894C168.134 46.202 168.044 46.7752 168.044 47.4091C168.044 48.0385 168.134 48.6095 168.314 49.1221C168.498 49.6346 168.775 50.0437 169.143 50.3494C169.516 50.6507 169.984 50.8013 170.546 50.8013ZM180.009 46.4852V52.5547H177.568V42.1961H179.901V43.9563H180.023C180.261 43.3763 180.641 42.9154 181.163 42.5738C181.689 42.2321 182.338 42.0612 183.112 42.0612C183.826 42.0612 184.449 42.2141 184.98 42.5198C185.515 42.8255 185.928 43.2684 186.22 43.8484C186.517 44.4283 186.663 45.1319 186.659 45.9592V52.5547H184.218V46.3368C184.218 45.6445 184.038 45.1027 183.678 44.7116C183.323 44.3204 182.831 44.1248 182.201 44.1248C181.774 44.1248 181.394 44.2193 181.061 44.4081C180.733 44.5924 180.475 44.8599 180.286 45.2106C180.101 45.5613 180.009 45.9862 180.009 46.4852Z" fill="#1C1C1C"/>
<path d="M38.4371 87.3884C38.9226 87.3923 39.4082 87.4848 39.8938 87.6659C40.3793 87.847 40.8225 88.1476 41.2233 88.5676C41.624 88.9838 41.9458 89.5523 42.1886 90.2729C42.4314 90.9935 42.5528 91.8972 42.5528 92.9839C42.5528 94.036 42.4526 94.9705 42.2522 95.7874C42.0557 96.6006 41.7705 97.2865 41.3967 97.8453C41.0267 98.4041 40.5759 98.828 40.0441 99.117C39.5161 99.406 38.9188 99.5505 38.2521 99.5505C37.5893 99.5505 36.9977 99.4195 36.4775 99.1575C35.9611 98.8916 35.5372 98.5235 35.2058 98.0534C34.8782 97.5794 34.6682 97.0302 34.5757 96.406H35.9862C36.1133 96.9493 36.3658 97.3983 36.7434 97.7528C37.1249 98.1035 37.6278 98.2788 38.2521 98.2788C39.1654 98.2788 39.8861 97.88 40.414 97.0823C40.9458 96.2846 41.2117 95.1574 41.2117 93.7007H41.1192C40.9034 94.0244 40.6471 94.3038 40.3504 94.5389C40.0537 94.7739 39.7242 94.9551 39.362 95.0822C38.9997 95.2094 38.6143 95.273 38.2059 95.273C37.5276 95.273 36.9053 95.1054 36.3388 94.7701C35.7761 94.431 35.3253 93.9666 34.9861 93.377C34.6509 92.7835 34.4832 92.1053 34.4832 91.3423C34.4832 90.6178 34.6451 89.955 34.9688 89.3538C35.2964 88.7488 35.7549 88.2671 36.3446 87.9087C36.938 87.5503 37.6355 87.3769 38.4371 87.3884ZM38.4371 88.6601C37.9515 88.6601 37.5141 88.7815 37.1249 89.0243C36.7396 89.2632 36.4332 89.5869 36.2058 89.9954C35.9823 90.4001 35.8706 90.849 35.8706 91.3423C35.8706 91.8355 35.9785 92.2845 36.1943 92.6891C36.4139 93.0899 36.7126 93.4097 37.0902 93.6487C37.4717 93.8837 37.9053 94.0013 38.3908 94.0013C38.7569 94.0013 39.098 93.93 39.414 93.7874C39.73 93.641 40.0055 93.4425 40.2406 93.192C40.4795 92.9377 40.6664 92.6506 40.8013 92.3307C40.9362 92.007 41.0036 91.6698 41.0036 91.3191C41.0036 90.8567 40.8919 90.4232 40.6683 90.0185C40.4487 89.6139 40.1442 89.2864 39.755 89.0359C39.3697 88.7854 38.9303 88.6601 38.4371 88.6601ZM48.6873 99.5505C47.8164 99.5505 47.0745 99.3135 46.4618 98.8395C45.8491 98.3617 45.3809 97.6699 45.0572 96.7643C44.7334 95.8549 44.5716 94.7566 44.5716 93.4695C44.5716 92.1901 44.7334 91.0976 45.0572 90.192C45.3847 89.2825 45.8549 88.5888 46.4676 88.111C47.0842 87.6293 47.8241 87.3884 48.6873 87.3884C49.5505 87.3884 50.2885 87.6293 50.9012 88.111C51.5178 88.5888 51.9879 89.2825 52.3116 90.192C52.6392 91.0976 52.803 92.1901 52.803 93.4695C52.803 94.7566 52.6411 95.8549 52.3174 96.7643C51.9937 97.6699 51.5255 98.3617 50.9128 98.8395C50.3 99.3135 49.5582 99.5505 48.6873 99.5505ZM48.6873 98.2788C49.5505 98.2788 50.221 97.8626 50.6989 97.0302C51.1767 96.1979 51.4157 95.0109 51.4157 93.4695C51.4157 92.4444 51.3058 91.5716 51.0862 90.8509C50.8704 90.1303 50.5582 89.5812 50.1497 89.2035C49.7451 88.8258 49.2576 88.637 48.6873 88.637C47.8318 88.637 47.1632 89.059 46.6815 89.9029C46.1998 90.743 45.9589 91.9319 45.9589 93.4695C45.9589 94.4945 46.0668 95.3655 46.2826 96.0822C46.4984 96.799 46.8086 97.3443 47.2133 97.7181C47.6218 98.0919 48.1131 98.2788 48.6873 98.2788ZM58.8609 99.5505C57.99 99.5505 57.2481 99.3135 56.6354 98.8395C56.0227 98.3617 55.5545 97.6699 55.2308 96.7643C54.9071 95.8549 54.7452 94.7566 54.7452 93.4695C54.7452 92.1901 54.9071 91.0976 55.2308 90.192C55.5583 89.2825 56.0285 88.5888 56.6412 88.111C57.2578 87.6293 57.9977 87.3884 58.8609 87.3884C59.7241 87.3884 60.4621 87.6293 61.0748 88.111C61.6914 88.5888 62.1615 89.2825 62.4852 90.192C62.8128 91.0976 62.9766 92.1901 62.9766 93.4695C62.9766 94.7566 62.8147 95.8549 62.491 96.7643C62.1673 97.6699 61.6991 98.3617 61.0864 98.8395C60.4736 99.3135 59.7318 99.5505 58.8609 99.5505ZM58.8609 98.2788C59.7241 98.2788 60.3946 97.8626 60.8725 97.0302C61.3503 96.1979 61.5893 95.0109 61.5893 93.4695C61.5893 92.4444 61.4794 91.5716 61.2598 90.8509C61.044 90.1303 60.7318 89.5812 60.3234 89.2035C59.9187 88.8258 59.4312 88.637 58.8609 88.637C58.0054 88.637 57.3368 89.059 56.8551 89.9029C56.3734 90.743 56.1325 91.9319 56.1325 93.4695C56.1325 94.4945 56.2404 95.3655 56.4562 96.0822C56.672 96.799 56.9822 97.3443 57.3869 97.7181C57.7954 98.0919 58.2867 98.2788 58.8609 98.2788ZM65.3813 99.3887V87.5503H66.8148V93.4232H66.9535L72.2716 87.5503H74.1444L69.1732 92.8914L74.1444 99.3887H72.4103L68.2946 93.8857L66.8148 95.5504V99.3887H65.3813Z" fill="black" fill-opacity="0.4"/>
<path d="M38.5989 162.917C38.1134 162.909 37.6278 162.817 37.1423 162.639C36.6567 162.462 36.2135 162.163 35.8128 161.743C35.412 161.319 35.0902 160.747 34.8474 160.027C34.6046 159.302 34.4832 158.393 34.4832 157.298C34.4832 156.25 34.5815 155.321 34.7781 154.512C34.9746 153.699 35.2598 153.015 35.6336 152.46C36.0074 151.901 36.4582 151.477 36.9862 151.188C37.518 150.899 38.1172 150.755 38.7839 150.755C39.4467 150.755 40.0363 150.888 40.5527 151.153C41.073 151.416 41.4969 151.782 41.8244 152.252C42.152 152.722 42.3639 153.263 42.4603 153.876H41.0499C40.9188 153.344 40.6645 152.903 40.2868 152.552C39.9092 152.202 39.4082 152.026 38.7839 152.026C37.8667 152.026 37.1442 152.425 36.6162 153.223C36.0921 154.021 35.8282 155.14 35.8243 156.581H35.9168C36.1326 156.254 36.3889 155.974 36.6856 155.743C36.9862 155.508 37.3176 155.327 37.6798 155.2C38.0421 155.073 38.4255 155.009 38.8302 155.009C39.5084 155.009 40.1288 155.179 40.6915 155.518C41.2541 155.853 41.705 156.317 42.0441 156.911C42.3832 157.5 42.5528 158.177 42.5528 158.94C42.5528 159.672 42.389 160.343 42.0614 160.951C41.7339 161.556 41.2734 162.038 40.6799 162.396C40.0903 162.751 39.3966 162.924 38.5989 162.917ZM38.5989 161.645C39.0845 161.645 39.52 161.524 39.9053 161.281C40.2945 161.038 40.6009 160.712 40.8244 160.304C41.0518 159.895 41.1655 159.441 41.1655 158.94C41.1655 158.45 41.0556 158.005 40.836 157.604C40.6202 157.2 40.3215 156.878 39.94 156.639C39.5623 156.4 39.1307 156.281 38.6452 156.281C38.2791 156.281 37.938 156.354 37.622 156.5C37.306 156.643 37.0286 156.84 36.7897 157.09C36.5546 157.341 36.3696 157.628 36.2347 157.951C36.0998 158.271 36.0324 158.608 36.0324 158.963C36.0324 159.433 36.1422 159.872 36.3619 160.281C36.5854 160.689 36.8898 161.019 37.2752 161.269C37.6644 161.52 38.1057 161.645 38.5989 161.645ZM48.6873 162.917C47.8164 162.917 47.0745 162.68 46.4618 162.206C45.8491 161.728 45.3809 161.036 45.0572 160.131C44.7334 159.221 44.5716 158.123 44.5716 156.836C44.5716 155.556 44.7334 154.464 45.0572 153.558C45.3847 152.649 45.8549 151.955 46.4676 151.477C47.0842 150.995 47.8241 150.755 48.6873 150.755C49.5505 150.755 50.2885 150.995 50.9012 151.477C51.5178 151.955 51.9879 152.649 52.3116 153.558C52.6392 154.464 52.803 155.556 52.803 156.836C52.803 158.123 52.6411 159.221 52.3174 160.131C51.9937 161.036 51.5255 161.728 50.9128 162.206C50.3 162.68 49.5582 162.917 48.6873 162.917ZM48.6873 161.645C49.5505 161.645 50.221 161.229 50.6989 160.396C51.1767 159.564 51.4157 158.377 51.4157 156.836C51.4157 155.811 51.3058 154.938 51.0862 154.217C50.8704 153.497 50.5582 152.947 50.1497 152.57C49.7451 152.192 49.2576 152.003 48.6873 152.003C47.8318 152.003 47.1632 152.425 46.6815 153.269C46.1998 154.109 45.9589 155.298 45.9589 156.836C45.9589 157.861 46.0668 158.732 46.2826 159.448C46.4984 160.165 46.8086 160.711 47.2133 161.084C47.6218 161.458 48.1131 161.645 48.6873 161.645ZM58.8609 162.917C57.99 162.917 57.2481 162.68 56.6354 162.206C56.0227 161.728 55.5545 161.036 55.2308 160.131C54.9071 159.221 54.7452 158.123 54.7452 156.836C54.7452 155.556 54.9071 154.464 55.2308 153.558C55.5583 152.649 56.0285 151.955 56.6412 151.477C57.2578 150.995 57.9977 150.755 58.8609 150.755C59.7241 150.755 60.4621 150.995 61.0748 151.477C61.6914 151.955 62.1615 152.649 62.4852 153.558C62.8128 154.464 62.9766 155.556 62.9766 156.836C62.9766 158.123 62.8147 159.221 62.491 160.131C62.1673 161.036 61.6991 161.728 61.0864 162.206C60.4736 162.68 59.7318 162.917 58.8609 162.917ZM58.8609 161.645C59.7241 161.645 60.3946 161.229 60.8725 160.396C61.3503 159.564 61.5893 158.377 61.5893 156.836C61.5893 155.811 61.4794 154.938 61.2598 154.217C61.044 153.497 60.7318 152.947 60.3234 152.57C59.9187 152.192 59.4312 152.003 58.8609 152.003C58.0054 152.003 57.3368 152.425 56.8551 153.269C56.3734 154.109 56.1325 155.298 56.1325 156.836C56.1325 157.861 56.2404 158.732 56.4562 159.448C56.672 160.165 56.9822 160.711 57.3869 161.084C57.7954 161.458 58.2867 161.645 58.8609 161.645ZM65.3813 162.755V150.916H66.8148V156.789H66.9535L72.2716 150.916H74.1444L69.1732 156.258L74.1444 162.755H72.4103L68.2946 157.252L66.8148 158.917V162.755H65.3813Z" fill="black" fill-opacity="0.4"/>
<path d="M38.4617 226.282C37.6986 226.282 37.0185 226.151 36.4211 225.889C35.8277 225.627 35.3556 225.263 35.0049 224.796C34.6581 224.326 34.4693 223.781 34.4385 223.161H35.8951C35.926 223.542 36.057 223.872 36.2882 224.149C36.5194 224.423 36.8219 224.635 37.1957 224.785C37.5695 224.935 37.9838 225.01 38.4385 225.01C38.9472 225.01 39.3981 224.922 39.7912 224.744C40.1842 224.567 40.4925 224.32 40.716 224.004C40.9395 223.688 41.0513 223.322 41.0513 222.906C41.0513 222.471 40.9434 222.087 40.7276 221.756C40.5118 221.421 40.1958 221.159 39.7796 220.97C39.3634 220.781 38.8547 220.686 38.2536 220.686H37.3056V219.415H38.2536C38.7237 219.415 39.136 219.33 39.4906 219.16C39.849 218.991 40.1284 218.752 40.3287 218.444C40.533 218.135 40.6351 217.773 40.6351 217.357C40.6351 216.956 40.5465 216.607 40.3692 216.311C40.1919 216.014 39.9414 215.783 39.6177 215.617C39.2979 215.451 38.9202 215.368 38.4848 215.368C38.0763 215.368 37.6909 215.444 37.3287 215.594C36.9703 215.74 36.6774 215.954 36.4501 216.236C36.2227 216.513 36.0994 216.848 36.0801 217.241H34.6928C34.7159 216.621 34.9028 216.078 35.2535 215.611C35.6042 215.141 36.0628 214.775 36.6292 214.513C37.1996 214.251 37.8258 214.12 38.5079 214.12C39.2401 214.12 39.8682 214.268 40.3923 214.565C40.9164 214.858 41.3191 215.245 41.6004 215.727C41.8818 216.209 42.0224 216.729 42.0224 217.288C42.0224 217.954 41.8471 218.523 41.4964 218.993C41.1496 219.463 40.6775 219.789 40.0802 219.97V220.062C40.8278 220.186 41.4116 220.503 41.8317 221.016C42.2517 221.525 42.4617 222.155 42.4617 222.906C42.4617 223.55 42.2864 224.128 41.9357 224.64C41.5889 225.149 41.1149 225.55 40.5137 225.843C39.9125 226.136 39.2285 226.282 38.4617 226.282ZM48.6873 226.282C47.8164 226.282 47.0745 226.045 46.4618 225.571C45.8491 225.093 45.3809 224.401 45.0572 223.496C44.7335 222.586 44.5716 221.488 44.5716 220.201C44.5716 218.922 44.7335 217.829 45.0572 216.923C45.3847 216.014 45.8549 215.32 46.4676 214.842C47.0842 214.361 47.8241 214.12 48.6873 214.12C49.5505 214.12 50.2885 214.361 50.9012 214.842C51.5178 215.32 51.9879 216.014 52.3116 216.923C52.6392 217.829 52.803 218.922 52.803 220.201C52.803 221.488 52.6411 222.586 52.3174 223.496C51.9937 224.401 51.5255 225.093 50.9128 225.571C50.3 226.045 49.5582 226.282 48.6873 226.282ZM48.6873 225.01C49.5505 225.01 50.221 224.594 50.6989 223.762C51.1767 222.929 51.4157 221.742 51.4157 220.201C51.4157 219.176 51.3058 218.303 51.0862 217.582C50.8704 216.862 50.5582 216.313 50.1497 215.935C49.7451 215.557 49.2576 215.368 48.6873 215.368C47.8318 215.368 47.1632 215.79 46.6815 216.634C46.1998 217.474 45.9589 218.663 45.9589 220.201C45.9589 221.226 46.0668 222.097 46.2826 222.814C46.4984 223.53 46.8086 224.076 47.2133 224.45C47.6218 224.823 48.1131 225.01 48.6873 225.01ZM58.8609 226.282C57.99 226.282 57.2481 226.045 56.6354 225.571C56.0227 225.093 55.5545 224.401 55.2308 223.496C54.9071 222.586 54.7452 221.488 54.7452 220.201C54.7452 218.922 54.9071 217.829 55.2308 216.923C55.5583 216.014 56.0285 215.32 56.6412 214.842C57.2578 214.361 57.9977 214.12 58.8609 214.12C59.7241 214.12 60.4621 214.361 61.0748 214.842C61.6914 215.32 62.1615 216.014 62.4852 216.923C62.8128 217.829 62.9766 218.922 62.9766 220.201C62.9766 221.488 62.8147 222.586 62.491 223.496C62.1673 224.401 61.6991 225.093 61.0864 225.571C60.4736 226.045 59.7318 226.282 58.8609 226.282ZM58.8609 225.01C59.7241 225.01 60.3946 224.594 60.8725 223.762C61.3503 222.929 61.5893 221.742 61.5893 220.201C61.5893 219.176 61.4794 218.303 61.2598 217.582C61.044 216.862 60.7318 216.313 60.3234 215.935C59.9187 215.557 59.4312 215.368 58.8609 215.368C58.0054 215.368 57.3368 215.79 56.8551 216.634C56.3734 217.474 56.1325 218.663 56.1325 220.201C56.1325 221.226 56.2404 222.097 56.4562 222.814C56.672 223.53 56.9822 224.076 57.3869 224.45C57.7954 224.823 58.2867 225.01 58.8609 225.01ZM65.3813 226.12V214.282H66.8148V220.155H66.9535L72.2716 214.282H74.1444L69.1732 219.623L74.1444 226.12H72.4103L68.2946 220.617L66.8148 222.282V226.12H65.3813Z" fill="black" fill-opacity="0.4"/>
<path d="M69.4796 289.648C68.6087 289.648 67.8669 289.411 67.2541 288.937C66.6414 288.459 66.1732 287.768 65.8495 286.862C65.5258 285.953 65.3639 284.854 65.3639 283.567C65.3639 282.288 65.5258 281.195 65.8495 280.29C66.177 279.38 66.6472 278.687 67.2599 278.209C67.8765 277.727 68.6164 277.486 69.4796 277.486C70.3428 277.486 71.0808 277.727 71.6935 278.209C72.3101 278.687 72.7802 279.38 73.1039 280.29C73.4315 281.195 73.5953 282.288 73.5953 283.567C73.5953 284.854 73.4334 285.953 73.1097 286.862C72.786 287.768 72.3178 288.459 71.7051 288.937C71.0923 289.411 70.3505 289.648 69.4796 289.648ZM69.4796 288.376C70.3428 288.376 71.0133 287.96 71.4912 287.128C71.9691 286.296 72.208 285.109 72.208 283.567C72.208 282.542 72.0981 281.669 71.8785 280.949C71.6627 280.228 71.3505 279.679 70.9421 279.301C70.5374 278.923 70.0499 278.735 69.4796 278.735C68.6241 278.735 67.9555 279.157 67.4738 280.001C66.9921 280.841 66.7512 282.03 66.7512 283.567C66.7512 284.592 66.8591 285.463 67.0749 286.18C67.2907 286.897 67.601 287.442 68.0056 287.816C68.4141 288.19 68.9054 288.376 69.4796 288.376Z" fill="black" fill-opacity="0.4"/>
<line x1="96.9478" y1="102.414" x2="552.776" y2="102.414" stroke="black" stroke-opacity="0.05" stroke-width="1.35648" stroke-linecap="round"/>
<line x1="96.9478" y1="167.073" x2="552.776" y2="167.073" stroke="black" stroke-opacity="0.05" stroke-width="1.35648" stroke-linecap="round"/>
<line x1="96.9478" y1="231.732" x2="552.776" y2="231.732" stroke="black" stroke-opacity="0.05" stroke-width="1.35648" stroke-linecap="round"/>
<line x1="96.9478" y1="296.391" x2="552.776" y2="296.391" stroke="black" stroke-opacity="0.2" stroke-width="1.35648" stroke-linecap="round"/>
<path d="M132.348 319.508H133.782V327.347C133.782 328.156 133.591 328.878 133.209 329.514C132.832 330.146 132.298 330.645 131.608 331.011C130.918 331.374 130.109 331.555 129.18 331.555C128.252 331.555 127.442 331.374 126.753 331.011C126.063 330.645 125.527 330.146 125.146 329.514C124.768 328.878 124.579 328.156 124.579 327.347V319.508H126.013V327.231C126.013 327.809 126.14 328.323 126.394 328.774C126.648 329.221 127.011 329.574 127.481 329.832C127.955 330.087 128.521 330.214 129.18 330.214C129.839 330.214 130.406 330.087 130.88 329.832C131.354 329.574 131.716 329.221 131.967 328.774C132.221 328.323 132.348 327.809 132.348 327.231V319.508ZM143.118 322.468C143.049 321.882 142.768 321.427 142.275 321.104C141.781 320.78 141.176 320.618 140.459 320.618C139.935 320.618 139.477 320.703 139.084 320.872C138.694 321.042 138.39 321.275 138.17 321.572C137.955 321.869 137.847 322.206 137.847 322.584C137.847 322.899 137.922 323.171 138.072 323.399C138.226 323.622 138.423 323.809 138.662 323.959C138.901 324.106 139.151 324.227 139.413 324.323C139.675 324.416 139.916 324.491 140.136 324.549L141.338 324.873C141.646 324.953 141.989 325.065 142.367 325.208C142.749 325.35 143.113 325.545 143.46 325.792C143.81 326.034 144.099 326.347 144.327 326.728C144.554 327.11 144.668 327.578 144.668 328.133C144.668 328.772 144.5 329.35 144.165 329.867C143.833 330.383 143.348 330.794 142.708 331.098C142.072 331.403 141.3 331.555 140.39 331.555C139.542 331.555 138.808 331.418 138.188 331.144C137.571 330.871 137.086 330.489 136.731 330C136.38 329.51 136.182 328.942 136.136 328.295H137.615C137.654 328.742 137.804 329.112 138.066 329.404C138.332 329.693 138.668 329.909 139.072 330.052C139.481 330.191 139.92 330.26 140.39 330.26C140.937 330.26 141.429 330.171 141.864 329.994C142.3 329.813 142.644 329.562 142.899 329.243C143.153 328.919 143.28 328.541 143.28 328.11C143.28 327.717 143.17 327.397 142.951 327.15C142.731 326.903 142.442 326.703 142.084 326.549C141.725 326.395 141.338 326.26 140.922 326.144L139.465 325.728C138.54 325.462 137.808 325.083 137.269 324.589C136.729 324.096 136.459 323.451 136.459 322.653C136.459 321.99 136.639 321.412 136.997 320.919C137.359 320.422 137.845 320.036 138.454 319.763C139.066 319.485 139.75 319.346 140.506 319.346C141.269 319.346 141.947 319.483 142.54 319.757C143.134 320.027 143.604 320.397 143.951 320.867C144.302 321.337 144.487 321.871 144.506 322.468H143.118Z" fill="black" fill-opacity="0.4"/>
<path d="M192.032 323.208H190.598C190.513 322.795 190.365 322.433 190.153 322.121C189.945 321.809 189.691 321.547 189.39 321.335C189.093 321.119 188.764 320.957 188.402 320.849C188.039 320.741 187.662 320.688 187.269 320.688C186.552 320.688 185.903 320.869 185.321 321.231C184.743 321.593 184.282 322.127 183.939 322.832C183.6 323.537 183.43 324.402 183.43 325.427C183.43 326.453 183.6 327.318 183.939 328.023C184.282 328.728 184.743 329.262 185.321 329.624C185.903 329.986 186.552 330.167 187.269 330.167C187.662 330.167 188.039 330.114 188.402 330.006C188.764 329.898 189.093 329.738 189.39 329.526C189.691 329.31 189.945 329.046 190.153 328.734C190.365 328.418 190.513 328.056 190.598 327.647H192.032C191.924 328.252 191.727 328.794 191.442 329.271C191.157 329.749 190.802 330.156 190.379 330.491C189.955 330.823 189.479 331.075 188.951 331.248C188.427 331.422 187.866 331.509 187.269 331.509C186.259 331.509 185.361 331.262 184.575 330.769C183.789 330.275 183.17 329.574 182.719 328.665C182.269 327.755 182.043 326.676 182.043 325.427C182.043 324.179 182.269 323.1 182.719 322.19C183.17 321.281 183.789 320.58 184.575 320.086C185.361 319.593 186.259 319.346 187.269 319.346C187.866 319.346 188.427 319.433 188.951 319.607C189.479 319.78 189.955 320.034 190.379 320.37C190.802 320.701 191.157 321.106 191.442 321.583C191.727 322.057 191.924 322.599 192.032 323.208ZM196.776 331.555C196.213 331.555 195.703 331.449 195.244 331.237C194.786 331.021 194.421 330.711 194.152 330.306C193.882 329.898 193.747 329.404 193.747 328.826C193.747 328.318 193.847 327.905 194.048 327.589C194.248 327.27 194.516 327.019 194.851 326.838C195.186 326.657 195.556 326.522 195.961 326.433C196.369 326.341 196.78 326.268 197.192 326.214C197.732 326.144 198.169 326.092 198.504 326.058C198.844 326.019 199.09 325.955 199.244 325.867C199.402 325.778 199.481 325.624 199.481 325.404V325.358C199.481 324.788 199.325 324.345 199.013 324.029C198.705 323.713 198.237 323.555 197.608 323.555C196.957 323.555 196.447 323.697 196.077 323.982C195.707 324.268 195.447 324.572 195.296 324.896L194.001 324.433C194.233 323.894 194.541 323.474 194.926 323.173C195.316 322.869 195.739 322.657 196.198 322.537C196.66 322.414 197.115 322.352 197.562 322.352C197.847 322.352 198.175 322.387 198.545 322.456C198.919 322.522 199.279 322.659 199.626 322.867C199.977 323.075 200.267 323.389 200.499 323.809C200.73 324.229 200.846 324.792 200.846 325.497V331.347H199.481V330.144H199.412C199.319 330.337 199.165 330.543 198.95 330.763C198.734 330.983 198.447 331.169 198.088 331.324C197.73 331.478 197.292 331.555 196.776 331.555ZM196.984 330.329C197.524 330.329 197.978 330.223 198.348 330.011C198.722 329.799 199.003 329.526 199.192 329.191C199.385 328.855 199.481 328.503 199.481 328.133V326.884C199.424 326.954 199.296 327.017 199.1 327.075C198.907 327.129 198.684 327.177 198.429 327.219C198.179 327.258 197.934 327.293 197.695 327.323C197.46 327.35 197.269 327.374 197.123 327.393C196.768 327.439 196.437 327.514 196.129 327.618C195.824 327.718 195.578 327.871 195.389 328.075C195.204 328.275 195.111 328.549 195.111 328.896C195.111 329.37 195.287 329.728 195.637 329.971C195.992 330.21 196.441 330.329 196.984 330.329ZM204.7 326.006V331.347H203.335V322.468H204.653V323.855H204.769C204.977 323.404 205.293 323.042 205.717 322.768C206.141 322.491 206.688 322.352 207.359 322.352C207.96 322.352 208.486 322.476 208.937 322.722C209.388 322.965 209.738 323.335 209.989 323.832C210.239 324.325 210.364 324.95 210.364 325.705V331.347H209V325.797C209 325.1 208.819 324.557 208.457 324.167C208.095 323.774 207.598 323.578 206.966 323.578C206.53 323.578 206.141 323.672 205.798 323.861C205.459 324.05 205.191 324.325 204.994 324.688C204.798 325.05 204.7 325.489 204.7 326.006ZM215.47 331.555C214.907 331.555 214.397 331.449 213.938 331.237C213.48 331.021 213.115 330.711 212.846 330.306C212.576 329.898 212.441 329.404 212.441 328.826C212.441 328.318 212.541 327.905 212.742 327.589C212.942 327.27 213.21 327.019 213.545 326.838C213.88 326.657 214.25 326.522 214.655 326.433C215.064 326.341 215.474 326.268 215.886 326.214C216.426 326.144 216.863 326.092 217.198 326.058C217.538 326.019 217.784 325.955 217.938 325.867C218.096 325.778 218.175 325.624 218.175 325.404V325.358C218.175 324.788 218.019 324.345 217.707 324.029C217.399 323.713 216.931 323.555 216.302 323.555C215.651 323.555 215.141 323.697 214.771 323.982C214.401 324.268 214.141 324.572 213.99 324.896L212.695 324.433C212.927 323.894 213.235 323.474 213.62 323.173C214.01 322.869 214.433 322.657 214.892 322.537C215.354 322.414 215.809 322.352 216.256 322.352C216.541 322.352 216.869 322.387 217.239 322.456C217.613 322.522 217.973 322.659 218.32 322.867C218.671 323.075 218.961 323.389 219.193 323.809C219.424 324.229 219.54 324.792 219.54 325.497V331.347H218.175V330.144H218.106C218.013 330.337 217.859 330.543 217.644 330.763C217.428 330.983 217.141 331.169 216.782 331.324C216.424 331.478 215.986 331.555 215.47 331.555ZM215.678 330.329C216.218 330.329 216.672 330.223 217.042 330.011C217.416 329.799 217.697 329.526 217.886 329.191C218.079 328.855 218.175 328.503 218.175 328.133V326.884C218.118 326.954 217.99 327.017 217.794 327.075C217.601 327.129 217.378 327.177 217.123 327.219C216.873 327.258 216.628 327.293 216.389 327.323C216.154 327.35 215.963 327.374 215.817 327.393C215.462 327.439 215.131 327.514 214.823 327.618C214.518 327.718 214.272 327.871 214.083 328.075C213.898 328.275 213.805 328.549 213.805 328.896C213.805 329.37 213.981 329.728 214.331 329.971C214.686 330.21 215.135 330.329 215.678 330.329ZM225.382 331.532C224.642 331.532 223.989 331.345 223.423 330.971C222.856 330.593 222.413 330.061 222.093 329.376C221.773 328.686 221.613 327.871 221.613 326.93C221.613 325.998 221.773 325.189 222.093 324.503C222.413 323.817 222.858 323.287 223.428 322.913C223.999 322.539 224.658 322.352 225.405 322.352C225.983 322.352 226.44 322.449 226.775 322.641C227.114 322.83 227.373 323.046 227.55 323.289C227.731 323.528 227.872 323.724 227.972 323.878H228.087V319.508H229.452V331.347H228.134V329.982H227.972C227.872 330.144 227.729 330.349 227.544 330.595C227.359 330.838 227.095 331.056 226.752 331.248C226.409 331.437 225.952 331.532 225.382 331.532ZM225.567 330.306C226.114 330.306 226.577 330.164 226.954 329.878C227.332 329.589 227.619 329.191 227.816 328.682C228.012 328.169 228.11 327.578 228.11 326.907C228.11 326.244 228.014 325.664 227.821 325.167C227.629 324.666 227.344 324.277 226.966 324C226.588 323.718 226.122 323.578 225.567 323.578C224.989 323.578 224.507 323.726 224.122 324.023C223.74 324.316 223.453 324.715 223.261 325.219C223.072 325.72 222.977 326.283 222.977 326.907C222.977 327.539 223.074 328.113 223.266 328.63C223.463 329.142 223.752 329.551 224.134 329.855C224.519 330.156 224.997 330.306 225.567 330.306ZM234.752 331.555C234.19 331.555 233.679 331.449 233.22 331.237C232.762 331.021 232.398 330.711 232.128 330.306C231.858 329.898 231.723 329.404 231.723 328.826C231.723 328.318 231.823 327.905 232.024 327.589C232.224 327.27 232.492 327.019 232.827 326.838C233.163 326.657 233.533 326.522 233.937 326.433C234.346 326.341 234.756 326.268 235.168 326.214C235.708 326.144 236.145 326.092 236.481 326.058C236.82 326.019 237.066 325.955 237.22 325.867C237.378 325.778 237.457 325.624 237.457 325.404V325.358C237.457 324.788 237.301 324.345 236.989 324.029C236.681 323.713 236.213 323.555 235.585 323.555C234.933 323.555 234.423 323.697 234.053 323.982C233.683 324.268 233.423 324.572 233.272 324.896L231.978 324.433C232.209 323.894 232.517 323.474 232.902 323.173C233.292 322.869 233.716 322.657 234.174 322.537C234.637 322.414 235.091 322.352 235.538 322.352C235.824 322.352 236.151 322.387 236.521 322.456C236.895 322.522 237.255 322.659 237.602 322.867C237.953 323.075 238.244 323.389 238.475 323.809C238.706 324.229 238.822 324.792 238.822 325.497V331.347H237.457V330.144H237.388C237.296 330.337 237.141 330.543 236.926 330.763C236.71 330.983 236.423 331.169 236.064 331.324C235.706 331.478 235.269 331.555 234.752 331.555ZM234.96 330.329C235.5 330.329 235.955 330.223 236.325 330.011C236.698 329.799 236.98 329.526 237.168 329.191C237.361 328.855 237.457 328.503 237.457 328.133V326.884C237.4 326.954 237.273 327.017 237.076 327.075C236.883 327.129 236.66 327.177 236.405 327.219C236.155 327.258 235.91 327.293 235.671 327.323C235.436 327.35 235.246 327.374 235.099 327.393C234.745 327.439 234.413 327.514 234.105 327.618C233.8 327.718 233.554 327.871 233.365 328.075C233.18 328.275 233.087 328.549 233.087 328.896C233.087 329.37 233.263 329.728 233.613 329.971C233.968 330.21 234.417 330.329 234.96 330.329Z" fill="black" fill-opacity="0.4"/>
<path d="M260.608 319.508H262.319L266.343 329.335H266.481L270.505 319.508H272.216V331.347H270.875V322.352H270.759L267.059 331.347H265.765L262.065 322.352H261.949V331.347H260.608V319.508ZM278.628 331.532C277.772 331.532 277.034 331.343 276.414 330.965C275.797 330.584 275.321 330.052 274.986 329.37C274.654 328.684 274.489 327.886 274.489 326.977C274.489 326.067 274.654 325.266 274.986 324.572C275.321 323.874 275.787 323.331 276.385 322.942C276.986 322.549 277.687 322.352 278.489 322.352C278.951 322.352 279.408 322.429 279.859 322.584C280.31 322.738 280.72 322.988 281.09 323.335C281.46 323.678 281.755 324.133 281.974 324.699C282.194 325.266 282.304 325.963 282.304 326.792V327.37H275.46V326.191H280.917C280.917 325.69 280.816 325.243 280.616 324.849C280.419 324.456 280.138 324.146 279.772 323.919C279.41 323.691 278.982 323.578 278.489 323.578C277.945 323.578 277.475 323.713 277.078 323.982C276.685 324.248 276.383 324.595 276.171 325.023C275.959 325.451 275.853 325.909 275.853 326.399V327.185C275.853 327.855 275.969 328.424 276.2 328.89C276.435 329.352 276.76 329.705 277.177 329.948C277.593 330.187 278.076 330.306 278.628 330.306C278.986 330.306 279.31 330.256 279.599 330.156C279.892 330.052 280.144 329.898 280.356 329.693C280.568 329.485 280.732 329.227 280.847 328.919L282.165 329.289C282.026 329.736 281.793 330.129 281.466 330.468C281.138 330.803 280.734 331.065 280.252 331.254C279.77 331.439 279.229 331.532 278.628 331.532ZM285.158 322.468L287.285 326.098L289.412 322.468H290.985L288.118 326.907L290.985 331.347H289.412L287.285 327.902L285.158 331.347H283.586L286.407 326.907L283.586 322.468H285.158ZM292.931 331.347V322.468H294.295V331.347H292.931ZM293.625 320.988C293.359 320.988 293.13 320.898 292.937 320.716C292.748 320.535 292.654 320.318 292.654 320.063C292.654 319.809 292.748 319.591 292.937 319.41C293.13 319.229 293.359 319.138 293.625 319.138C293.891 319.138 294.118 319.229 294.307 319.41C294.5 319.591 294.596 319.809 294.596 320.063C294.596 320.318 294.5 320.535 294.307 320.716C294.118 320.898 293.891 320.988 293.625 320.988ZM300.401 331.532C299.569 331.532 298.852 331.335 298.251 330.942C297.65 330.549 297.187 330.008 296.863 329.318C296.54 328.628 296.378 327.84 296.378 326.954C296.378 326.052 296.544 325.256 296.875 324.566C297.21 323.873 297.677 323.331 298.274 322.942C298.875 322.549 299.576 322.352 300.378 322.352C301.002 322.352 301.565 322.468 302.066 322.699C302.567 322.93 302.977 323.254 303.297 323.67C303.617 324.086 303.815 324.572 303.892 325.127H302.528C302.424 324.722 302.193 324.364 301.835 324.052C301.48 323.736 301.002 323.578 300.401 323.578C299.869 323.578 299.403 323.716 299.002 323.994C298.605 324.268 298.295 324.655 298.072 325.156C297.852 325.653 297.742 326.237 297.742 326.907C297.742 327.593 297.85 328.191 298.066 328.699C298.285 329.208 298.594 329.603 298.991 329.884C299.391 330.166 299.862 330.306 300.401 330.306C300.756 330.306 301.077 330.245 301.366 330.121C301.655 329.998 301.9 329.821 302.101 329.589C302.301 329.358 302.444 329.081 302.528 328.757H303.892C303.815 329.281 303.625 329.753 303.32 330.173C303.02 330.589 302.621 330.921 302.124 331.167C301.63 331.41 301.056 331.532 300.401 331.532ZM309.494 331.532C308.692 331.532 307.989 331.341 307.384 330.959C306.783 330.578 306.313 330.044 305.973 329.358C305.638 328.672 305.471 327.871 305.471 326.954C305.471 326.029 305.638 325.221 305.973 324.532C306.313 323.842 306.783 323.306 307.384 322.925C307.989 322.543 308.692 322.352 309.494 322.352C310.295 322.352 310.997 322.543 311.598 322.925C312.203 323.306 312.673 323.842 313.008 324.532C313.347 325.221 313.517 326.029 313.517 326.954C313.517 327.871 313.347 328.672 313.008 329.358C312.673 330.044 312.203 330.578 311.598 330.959C310.997 331.341 310.295 331.532 309.494 331.532ZM309.494 330.306C310.103 330.306 310.604 330.15 310.997 329.838C311.39 329.526 311.681 329.115 311.87 328.607C312.058 328.098 312.153 327.547 312.153 326.954C312.153 326.36 312.058 325.807 311.87 325.295C311.681 324.782 311.39 324.368 310.997 324.052C310.604 323.736 310.103 323.578 309.494 323.578C308.885 323.578 308.384 323.736 307.991 324.052C307.598 324.368 307.307 324.782 307.118 325.295C306.929 325.807 306.835 326.36 306.835 326.954C306.835 327.547 306.929 328.098 307.118 328.607C307.307 329.115 307.598 329.526 307.991 329.838C308.384 330.15 308.885 330.306 309.494 330.306Z" fill="black" fill-opacity="0.4"/>
<path d="M337.897 331.347H336.394L340.741 319.508H342.221L346.568 331.347H345.065L341.527 321.381H341.435L337.897 331.347ZM338.452 326.722H344.51V327.994H338.452V326.722ZM353.822 327.717V322.468H355.187V331.347H353.822V329.844H353.73C353.522 330.295 353.198 330.678 352.759 330.994C352.319 331.306 351.765 331.462 351.094 331.462C350.539 331.462 350.046 331.341 349.614 331.098C349.183 330.851 348.844 330.482 348.597 329.988C348.35 329.491 348.227 328.865 348.227 328.11V322.468H349.591V328.017C349.591 328.665 349.772 329.181 350.134 329.566C350.501 329.952 350.967 330.144 351.533 330.144C351.872 330.144 352.217 330.058 352.568 329.884C352.923 329.711 353.219 329.445 353.458 329.087C353.701 328.728 353.822 328.271 353.822 327.717ZM363.974 324.456L362.749 324.803C362.672 324.599 362.558 324.4 362.408 324.208C362.261 324.011 362.061 323.849 361.807 323.722C361.552 323.595 361.227 323.531 360.83 323.531C360.286 323.531 359.834 323.657 359.471 323.907C359.113 324.154 358.934 324.468 358.934 324.849C358.934 325.189 359.057 325.456 359.304 325.653C359.55 325.849 359.936 326.013 360.46 326.144L361.778 326.468C362.572 326.661 363.163 326.955 363.552 327.352C363.942 327.745 364.136 328.252 364.136 328.873C364.136 329.381 363.99 329.836 363.697 330.237C363.408 330.638 363.003 330.954 362.483 331.185C361.963 331.416 361.358 331.532 360.668 331.532C359.762 331.532 359.013 331.335 358.419 330.942C357.826 330.549 357.45 329.975 357.292 329.219L358.587 328.896C358.71 329.374 358.943 329.732 359.286 329.971C359.633 330.21 360.086 330.329 360.645 330.329C361.281 330.329 361.785 330.194 362.159 329.925C362.537 329.651 362.726 329.324 362.726 328.942C362.726 328.634 362.618 328.376 362.402 328.167C362.186 327.955 361.855 327.797 361.408 327.693L359.928 327.347C359.115 327.154 358.518 326.855 358.136 326.451C357.758 326.042 357.57 325.532 357.57 324.919C357.57 324.418 357.71 323.975 357.992 323.589C358.277 323.204 358.664 322.901 359.153 322.682C359.647 322.462 360.205 322.352 360.83 322.352C361.708 322.352 362.398 322.545 362.899 322.93C363.404 323.316 363.762 323.824 363.974 324.456ZM370.051 322.468V323.624H365.45V322.468H370.051ZM366.791 320.341H368.155V328.803C368.155 329.189 368.211 329.478 368.323 329.67C368.438 329.859 368.585 329.986 368.762 330.052C368.943 330.114 369.134 330.144 369.334 330.144C369.485 330.144 369.608 330.137 369.704 330.121C369.801 330.102 369.878 330.087 369.935 330.075L370.213 331.3C370.12 331.335 369.991 331.37 369.826 331.404C369.66 331.443 369.45 331.462 369.196 331.462C368.81 331.462 368.433 331.379 368.063 331.214C367.696 331.048 367.392 330.796 367.149 330.456C366.91 330.117 366.791 329.69 366.791 329.173V320.341ZM372.103 331.347V322.468H373.421V323.809H373.514C373.675 323.37 373.968 323.013 374.392 322.74C374.816 322.466 375.294 322.329 375.826 322.329C375.926 322.329 376.051 322.331 376.201 322.335C376.352 322.339 376.465 322.345 376.543 322.352V323.74C376.496 323.728 376.39 323.711 376.225 323.688C376.063 323.661 375.891 323.647 375.71 323.647C375.279 323.647 374.893 323.738 374.554 323.919C374.219 324.096 373.953 324.343 373.756 324.659C373.564 324.971 373.467 325.327 373.467 325.728V331.347H372.103ZM378.16 331.347V322.468H379.524V331.347H378.16ZM378.853 320.988C378.587 320.988 378.358 320.898 378.165 320.716C377.977 320.535 377.882 320.318 377.882 320.063C377.882 319.809 377.977 319.591 378.165 319.41C378.358 319.229 378.587 319.138 378.853 319.138C379.119 319.138 379.347 319.229 379.535 319.41C379.728 319.591 379.824 319.809 379.824 320.063C379.824 320.318 379.728 320.535 379.535 320.716C379.347 320.898 379.119 320.988 378.853 320.988ZM384.635 331.555C384.073 331.555 383.562 331.449 383.103 331.237C382.645 331.021 382.281 330.711 382.011 330.306C381.741 329.898 381.606 329.404 381.606 328.826C381.606 328.318 381.706 327.905 381.907 327.589C382.107 327.27 382.375 327.019 382.71 326.838C383.046 326.657 383.415 326.522 383.82 326.433C384.229 326.341 384.639 326.268 385.051 326.214C385.591 326.144 386.028 326.092 386.364 326.058C386.703 326.019 386.949 325.955 387.103 325.867C387.261 325.778 387.34 325.624 387.34 325.404V325.358C387.34 324.788 387.184 324.345 386.872 324.029C386.564 323.713 386.096 323.555 385.468 323.555C384.816 323.555 384.306 323.697 383.936 323.982C383.566 324.268 383.306 324.572 383.155 324.896L381.861 324.433C382.092 323.894 382.4 323.474 382.785 323.173C383.175 322.869 383.599 322.657 384.057 322.537C384.52 322.414 384.974 322.352 385.421 322.352C385.706 322.352 386.034 322.387 386.404 322.456C386.778 322.522 387.138 322.659 387.485 322.867C387.836 323.075 388.127 323.389 388.358 323.809C388.589 324.229 388.705 324.792 388.705 325.497V331.347H387.34V330.144H387.271C387.179 330.337 387.024 330.543 386.809 330.763C386.593 330.983 386.306 331.169 385.947 331.324C385.589 331.478 385.152 331.555 384.635 331.555ZM384.843 330.329C385.383 330.329 385.837 330.223 386.207 330.011C386.581 329.799 386.863 329.526 387.051 329.191C387.244 328.855 387.34 328.503 387.34 328.133V326.884C387.283 326.954 387.155 327.017 386.959 327.075C386.766 327.129 386.543 327.177 386.288 327.219C386.038 327.258 385.793 327.293 385.554 327.323C385.319 327.35 385.128 327.374 384.982 327.393C384.627 327.439 384.296 327.514 383.988 327.618C383.683 327.718 383.437 327.871 383.248 328.075C383.063 328.275 382.97 328.549 382.97 328.896C382.97 329.37 383.146 329.728 383.496 329.971C383.851 330.21 384.3 330.329 384.843 330.329Z" fill="black" fill-opacity="0.4"/>
<path d="M421.811 319.508H423.244V327.971C423.244 328.726 423.106 329.368 422.828 329.896C422.551 330.424 422.16 330.825 421.655 331.098C421.15 331.372 420.555 331.509 419.869 331.509C419.221 331.509 418.645 331.391 418.14 331.156C417.635 330.917 417.239 330.578 416.95 330.139C416.661 329.699 416.516 329.177 416.516 328.572H417.926C417.926 328.907 418.009 329.2 418.175 329.451C418.345 329.697 418.576 329.89 418.869 330.029C419.162 330.167 419.495 330.237 419.869 330.237C420.281 330.237 420.632 330.15 420.921 329.977C421.21 329.803 421.429 329.549 421.58 329.214C421.734 328.875 421.811 328.46 421.811 327.971V319.508ZM428.545 331.555C427.983 331.555 427.472 331.449 427.013 331.237C426.555 331.021 426.191 330.711 425.921 330.306C425.651 329.898 425.516 329.404 425.516 328.826C425.516 328.318 425.616 327.905 425.817 327.589C426.017 327.27 426.285 327.019 426.62 326.838C426.956 326.657 427.325 326.522 427.73 326.433C428.139 326.341 428.549 326.268 428.961 326.214C429.501 326.144 429.938 326.092 430.274 326.058C430.613 326.019 430.859 325.955 431.013 325.867C431.171 325.778 431.25 325.624 431.25 325.404V325.358C431.25 324.788 431.094 324.345 430.782 324.029C430.474 323.713 430.006 323.555 429.378 323.555C428.726 323.555 428.216 323.697 427.846 323.982C427.476 324.268 427.216 324.572 427.065 324.896L425.771 324.433C426.002 323.894 426.31 323.474 426.695 323.173C427.085 322.869 427.509 322.657 427.967 322.537C428.43 322.414 428.884 322.352 429.331 322.352C429.616 322.352 429.944 322.387 430.314 322.456C430.688 322.522 431.048 322.659 431.395 322.867C431.746 323.075 432.037 323.389 432.268 323.809C432.499 324.229 432.615 324.792 432.615 325.497V331.347H431.25V330.144H431.181C431.089 330.337 430.934 330.543 430.719 330.763C430.503 330.983 430.216 331.169 429.857 331.324C429.499 331.478 429.062 331.555 428.545 331.555ZM428.753 330.329C429.293 330.329 429.747 330.223 430.117 330.011C430.491 329.799 430.773 329.526 430.961 329.191C431.154 328.855 431.25 328.503 431.25 328.133V326.884C431.193 326.954 431.065 327.017 430.869 327.075C430.676 327.129 430.453 327.177 430.198 327.219C429.948 327.258 429.703 327.293 429.464 327.323C429.229 327.35 429.038 327.374 428.892 327.393C428.537 327.439 428.206 327.514 427.898 327.618C427.593 327.718 427.347 327.871 427.158 328.075C426.973 328.275 426.88 328.549 426.88 328.896C426.88 329.37 427.056 329.728 427.406 329.971C427.761 330.21 428.21 330.329 428.753 330.329ZM435.105 334.676V322.468H436.422V323.878H436.584C436.685 323.724 436.823 323.528 437.001 323.289C437.182 323.046 437.44 322.83 437.775 322.641C438.114 322.449 438.573 322.352 439.151 322.352C439.898 322.352 440.557 322.539 441.128 322.913C441.698 323.287 442.143 323.817 442.463 324.503C442.783 325.189 442.943 325.998 442.943 326.93C442.943 327.871 442.783 328.686 442.463 329.376C442.143 330.061 441.7 330.593 441.134 330.971C440.567 331.345 439.914 331.532 439.174 331.532C438.604 331.532 438.147 331.437 437.804 331.248C437.461 331.056 437.197 330.838 437.012 330.595C436.827 330.349 436.685 330.144 436.584 329.982H436.469V334.676H435.105ZM436.446 326.907C436.446 327.578 436.544 328.169 436.74 328.682C436.937 329.191 437.224 329.589 437.602 329.878C437.979 330.164 438.442 330.306 438.989 330.306C439.559 330.306 440.035 330.156 440.417 329.855C440.802 329.551 441.091 329.142 441.284 328.63C441.48 328.113 441.579 327.539 441.579 326.907C441.579 326.283 441.482 325.72 441.29 325.219C441.101 324.715 440.814 324.316 440.428 324.023C440.047 323.726 439.567 323.578 438.989 323.578C438.434 323.578 437.968 323.718 437.59 324C437.212 324.277 436.927 324.666 436.735 325.167C436.542 325.664 436.446 326.244 436.446 326.907ZM447.637 331.555C447.074 331.555 446.563 331.449 446.105 331.237C445.646 331.021 445.282 330.711 445.012 330.306C444.742 329.898 444.608 329.404 444.608 328.826C444.608 328.318 444.708 327.905 444.908 327.589C445.109 327.27 445.376 327.019 445.712 326.838C446.047 326.657 446.417 326.522 446.822 326.433C447.23 326.341 447.64 326.268 448.053 326.214C448.592 326.144 449.03 326.092 449.365 326.058C449.704 326.019 449.951 325.955 450.105 325.867C450.263 325.778 450.342 325.624 450.342 325.404V325.358C450.342 324.788 450.186 324.345 449.874 324.029C449.565 323.713 449.097 323.555 448.469 323.555C447.818 323.555 447.307 323.697 446.937 323.982C446.567 324.268 446.307 324.572 446.157 324.896L444.862 324.433C445.093 323.894 445.401 323.474 445.787 323.173C446.176 322.869 446.6 322.657 447.059 322.537C447.521 322.414 447.976 322.352 448.423 322.352C448.708 322.352 449.035 322.387 449.405 322.456C449.779 322.522 450.14 322.659 450.486 322.867C450.837 323.075 451.128 323.389 451.359 323.809C451.59 324.229 451.706 324.792 451.706 325.497V331.347H450.342V330.144H450.272C450.18 330.337 450.026 330.543 449.81 330.763C449.594 330.983 449.307 331.169 448.949 331.324C448.59 331.478 448.153 331.555 447.637 331.555ZM447.845 330.329C448.384 330.329 448.839 330.223 449.209 330.011C449.583 329.799 449.864 329.526 450.053 329.191C450.245 328.855 450.342 328.503 450.342 328.133V326.884C450.284 326.954 450.157 327.017 449.96 327.075C449.768 327.129 449.544 327.177 449.29 327.219C449.039 327.258 448.795 327.293 448.556 327.323C448.321 327.35 448.13 327.374 447.983 327.393C447.629 327.439 447.297 327.514 446.989 327.618C446.685 327.718 446.438 327.871 446.249 328.075C446.064 328.275 445.972 328.549 445.972 328.896C445.972 329.37 446.147 329.728 446.498 329.971C446.852 330.21 447.301 330.329 447.845 330.329ZM455.56 326.006V331.347H454.196V322.468H455.514V323.855H455.63C455.838 323.404 456.154 323.042 456.577 322.768C457.001 322.491 457.549 322.352 458.219 322.352C458.82 322.352 459.346 322.476 459.797 322.722C460.248 322.965 460.599 323.335 460.849 323.832C461.1 324.325 461.225 324.95 461.225 325.705V331.347H459.861V325.797C459.861 325.1 459.68 324.557 459.317 324.167C458.955 323.774 458.458 323.578 457.826 323.578C457.391 323.578 457.001 323.672 456.658 323.861C456.319 324.05 456.051 324.325 455.855 324.688C455.658 325.05 455.56 325.489 455.56 326.006Z" fill="black" fill-opacity="0.4"/>
<path d="M504.308 323.208H502.874C502.79 322.795 502.641 322.433 502.429 322.121C502.221 321.809 501.967 321.547 501.666 321.335C501.37 321.119 501.04 320.957 500.678 320.849C500.316 320.741 499.938 320.688 499.545 320.688C498.828 320.688 498.179 320.869 497.597 321.231C497.019 321.593 496.558 322.127 496.215 322.832C495.876 323.537 495.707 324.402 495.707 325.427C495.707 326.453 495.876 327.318 496.215 328.023C496.558 328.728 497.019 329.262 497.597 329.624C498.179 329.986 498.828 330.167 499.545 330.167C499.938 330.167 500.316 330.114 500.678 330.006C501.04 329.898 501.37 329.738 501.666 329.526C501.967 329.31 502.221 329.046 502.429 328.734C502.641 328.418 502.79 328.056 502.874 327.647H504.308C504.2 328.252 504.004 328.794 503.718 329.271C503.433 329.749 503.079 330.156 502.655 330.491C502.231 330.823 501.755 331.075 501.227 331.248C500.703 331.422 500.142 331.509 499.545 331.509C498.535 331.509 497.637 331.262 496.851 330.769C496.065 330.275 495.447 329.574 494.996 328.665C494.545 327.755 494.319 326.676 494.319 325.427C494.319 324.179 494.545 323.1 494.996 322.19C495.447 321.281 496.065 320.58 496.851 320.086C497.637 319.593 498.535 319.346 499.545 319.346C500.142 319.346 500.703 319.433 501.227 319.607C501.755 319.78 502.231 320.034 502.655 320.37C503.079 320.701 503.433 321.106 503.718 321.583C504.004 322.057 504.2 322.599 504.308 323.208ZM507.804 326.006V331.347H506.439V319.508H507.804V323.855H507.919C508.127 323.397 508.44 323.032 508.856 322.763C509.276 322.489 509.835 322.352 510.532 322.352C511.137 322.352 511.667 322.474 512.122 322.716C512.576 322.955 512.929 323.323 513.18 323.821C513.434 324.314 513.561 324.942 513.561 325.705V331.347H512.197V325.797C512.197 325.092 512.014 324.547 511.648 324.162C511.285 323.772 510.783 323.578 510.139 323.578C509.692 323.578 509.291 323.672 508.937 323.861C508.586 324.05 508.309 324.325 508.104 324.688C507.904 325.05 507.804 325.489 507.804 326.006ZM516.057 331.347V322.468H517.421V331.347H516.057ZM516.75 320.988C516.484 320.988 516.255 320.898 516.063 320.716C515.874 320.535 515.779 320.318 515.779 320.063C515.779 319.809 515.874 319.591 516.063 319.41C516.255 319.229 516.484 319.138 516.75 319.138C517.016 319.138 517.244 319.229 517.432 319.41C517.625 319.591 517.722 319.809 517.722 320.063C517.722 320.318 517.625 320.535 517.432 320.716C517.244 320.898 517.016 320.988 516.75 320.988ZM521.284 326.006V331.347H519.92V322.468H521.237V323.855H521.353C521.561 323.404 521.877 323.042 522.301 322.768C522.725 322.491 523.272 322.352 523.943 322.352C524.544 322.352 525.07 322.476 525.521 322.722C525.972 322.965 526.322 323.335 526.573 323.832C526.823 324.325 526.949 324.95 526.949 325.705V331.347H525.584V325.797C525.584 325.1 525.403 324.557 525.041 324.167C524.679 323.774 524.182 323.578 523.55 323.578C523.114 323.578 522.725 323.672 522.382 323.861C522.043 324.05 521.775 324.325 521.579 324.688C521.382 325.05 521.284 325.489 521.284 326.006ZM532.054 331.555C531.492 331.555 530.981 331.449 530.522 331.237C530.064 331.021 529.7 330.711 529.43 330.306C529.16 329.898 529.025 329.404 529.025 328.826C529.025 328.318 529.125 327.905 529.326 327.589C529.526 327.27 529.794 327.019 530.129 326.838C530.465 326.657 530.834 326.522 531.239 326.433C531.648 326.341 532.058 326.268 532.47 326.214C533.01 326.144 533.447 326.092 533.783 326.058C534.122 326.019 534.368 325.955 534.522 325.867C534.68 325.778 534.759 325.624 534.759 325.404V325.358C534.759 324.788 534.603 324.345 534.291 324.029C533.983 323.713 533.515 323.555 532.887 323.555C532.235 323.555 531.725 323.697 531.355 323.982C530.985 324.268 530.725 324.572 530.574 324.896L529.28 324.433C529.511 323.894 529.819 323.474 530.204 323.173C530.594 322.869 531.018 322.657 531.476 322.537C531.939 322.414 532.393 322.352 532.84 322.352C533.125 322.352 533.453 322.387 533.823 322.456C534.197 322.522 534.557 322.659 534.904 322.867C535.255 323.075 535.546 323.389 535.777 323.809C536.008 324.229 536.124 324.792 536.124 325.497V331.347H534.759V330.144H534.69C534.598 330.337 534.443 330.543 534.228 330.763C534.012 330.983 533.725 331.169 533.366 331.324C533.008 331.478 532.571 331.555 532.054 331.555ZM532.262 330.329C532.802 330.329 533.256 330.223 533.626 330.011C534 329.799 534.282 329.526 534.47 329.191C534.663 328.855 534.759 328.503 534.759 328.133V326.884C534.702 326.954 534.574 327.017 534.378 327.075C534.185 327.129 533.962 327.177 533.707 327.219C533.457 327.258 533.212 327.293 532.973 327.323C532.738 327.35 532.547 327.374 532.401 327.393C532.046 327.439 531.715 327.514 531.407 327.618C531.102 327.718 530.856 327.871 530.667 328.075C530.482 328.275 530.389 328.549 530.389 328.896C530.389 329.37 530.565 329.728 530.915 329.971C531.27 330.21 531.719 330.329 532.262 330.329Z" fill="black" fill-opacity="0.4"/>
<path d="M122.102 208.899C122.102 205.902 124.531 203.473 127.527 203.473H141.092C144.089 203.473 146.518 205.902 146.518 208.899V295.713H122.102V208.899Z" fill="#097EFF" fill-opacity="0.6"/>
<path d="M198.066 191.264C198.066 188.267 200.496 185.838 203.492 185.838H217.057C220.054 185.838 222.483 188.267 222.483 191.264V295.713H198.066V191.264Z" fill="#097EFF" fill-opacity="0.7"/>
<path d="M274.027 204.829C274.027 201.833 276.457 199.403 279.453 199.403H293.018C296.015 199.403 298.444 201.833 298.444 204.829V295.714H274.027V204.829Z" fill="#097EFF" fill-opacity="0.8"/>
<path d="M349.992 138.361C349.992 135.365 352.421 132.936 355.418 132.936H368.983C371.98 132.936 374.409 135.365 374.409 138.361V295.713H349.992V138.361Z" fill="#097EFF"/>
<path d="M425.953 253.662C425.953 250.666 428.382 248.236 431.379 248.236H444.944C447.941 248.236 450.37 250.666 450.37 253.662V295.713H425.953V253.662Z" fill="#097EFF" fill-opacity="0.5"/>
<path d="M501.918 181.769C501.918 178.772 504.347 176.343 507.344 176.343H520.909C523.905 176.343 526.335 178.772 526.335 181.769V295.713H501.918V181.769Z" fill="#097EFF" fill-opacity="0.4"/>
</svg>
