<svg width="586" height="371" viewBox="0 0 586 371" fill="none" xmlns="http://www.w3.org/2000/svg">
<rect width="586" height="370.319" rx="21.7037" fill="white"/>
<path d="M43.8562 52.7313C43.8562 53.4275 43.975 54.0217 44.2127 54.5141C44.4505 55.0065 44.7816 55.4141 45.206 55.7367C45.6305 56.0423 46.1144 56.2715 46.6578 56.4243C47.2181 56.5602 47.8209 56.6281 48.4661 56.6281C49.1623 56.6281 49.7565 56.5517 50.2489 56.3989C50.7414 56.2291 51.1404 56.0168 51.446 55.7621C51.7516 55.5074 51.9724 55.2188 52.1082 54.8962C52.244 54.5566 52.312 54.217 52.312 53.8774C52.312 53.1812 52.1507 52.6719 51.828 52.3493C51.5224 52.0097 51.1828 51.772 50.8093 51.6361C50.1641 51.3984 49.4085 51.1777 48.5425 50.9739C47.6935 50.7532 46.6408 50.473 45.3843 50.1334C44.6033 49.9297 43.9496 49.6665 43.4232 49.3439C42.9138 49.0043 42.5063 48.6307 42.2007 48.2232C41.895 47.8157 41.6743 47.3828 41.5385 46.9243C41.4196 46.4659 41.3602 45.9989 41.3602 45.5235C41.3602 44.6066 41.547 43.8171 41.9205 43.1549C42.311 42.4757 42.8204 41.9154 43.4487 41.4739C44.0769 41.0324 44.79 40.7098 45.5881 40.5061C46.3861 40.2853 47.1926 40.175 48.0077 40.175C48.9585 40.175 49.8499 40.3023 50.6819 40.557C51.5309 40.7947 52.2695 41.1598 52.8977 41.6522C53.543 42.1446 54.0524 42.7558 54.4259 43.486C54.7995 44.1991 54.9862 45.0311 54.9862 45.9819H51.8026C51.7177 44.8104 51.3187 43.9869 50.6055 43.5114C49.8924 43.019 48.984 42.7728 47.8803 42.7728C47.5068 42.7728 47.1247 42.8153 46.7342 42.9002C46.3437 42.9681 45.9871 43.0954 45.6645 43.2822C45.3419 43.452 45.0702 43.6897 44.8495 43.9953C44.6457 44.301 44.5438 44.683 44.5438 45.1415C44.5438 45.7867 44.7391 46.2961 45.1296 46.6696C45.5371 47.0262 46.0635 47.2979 46.7087 47.4846C46.7766 47.5016 47.0398 47.578 47.4983 47.7139C47.9737 47.8327 48.5001 47.9685 49.0774 48.1214C49.6547 48.2742 50.215 48.427 50.7583 48.5798C51.3187 48.7156 51.7177 48.8175 51.9554 48.8854C52.5497 49.0722 53.0675 49.3269 53.509 49.6495C53.9505 49.9721 54.3155 50.3457 54.6042 50.7702C54.9098 51.1777 55.1306 51.6191 55.2664 52.0946C55.4192 52.57 55.4956 53.0454 55.4956 53.5208C55.4956 54.5396 55.2834 55.4141 54.8589 56.1442C54.4514 56.8573 53.908 57.4431 53.2288 57.9015C52.5497 58.36 51.7771 58.6911 50.9111 58.8948C50.0452 59.1156 49.1623 59.2259 48.2623 59.2259C47.2266 59.2259 46.2503 59.0986 45.3334 58.8439C44.4165 58.5892 43.6185 58.1987 42.9393 57.6723C42.2601 57.146 41.7168 56.4753 41.3092 55.6603C40.9017 54.8283 40.6895 53.8519 40.6725 52.7313H43.8562ZM69.1583 58.793H66.3057V56.9592H66.2548C65.8982 57.6214 65.3633 58.1562 64.6502 58.5637C63.954 58.9543 63.2409 59.1495 62.5108 59.1495C60.7789 59.1495 59.5224 58.7251 58.7413 57.8761C57.9773 57.0101 57.5952 55.7112 57.5952 53.9793V45.6254H60.4987V53.6991C60.4987 54.8537 60.7195 55.6687 61.1609 56.1442C61.6024 56.6196 62.2221 56.8573 63.0202 56.8573C63.6314 56.8573 64.1408 56.7639 64.5483 56.5771C64.9558 56.3904 65.2869 56.1442 65.5416 55.8385C65.7963 55.5159 65.9746 55.1339 66.0765 54.6924C66.1953 54.251 66.2548 53.7755 66.2548 53.2661V45.6254H69.1583V58.793ZM72.0164 40.6079H74.9199V47.3318H74.9708C75.1746 47.0092 75.4208 46.7206 75.7094 46.4659C75.9981 46.2112 76.3122 45.9989 76.6518 45.8291C77.0084 45.6424 77.3734 45.5065 77.747 45.4216C78.1375 45.3197 78.5195 45.2688 78.8931 45.2688C79.9288 45.2688 80.8287 45.4556 81.5928 45.8291C82.3739 46.1857 83.0191 46.6866 83.5285 47.3318C84.0379 47.9601 84.4199 48.6987 84.6746 49.5476C84.9293 50.3966 85.0566 51.305 85.0566 52.2728C85.0566 53.1558 84.9378 54.0132 84.7001 54.8452C84.4793 55.6772 84.1313 56.4158 83.6558 57.0611C83.1974 57.6893 82.6116 58.1987 81.8984 58.5892C81.1853 58.9628 80.3448 59.1495 79.377 59.1495C78.9355 59.1495 78.4856 59.1156 78.0271 59.0477C77.5857 58.9967 77.1612 58.8864 76.7537 58.7166C76.3462 58.5468 75.9726 58.326 75.633 58.0544C75.3104 57.7827 75.0387 57.4261 74.818 56.9847H74.7671V58.793H72.0164V40.6079ZM82.1531 52.2219C82.1531 51.6276 82.0767 51.0503 81.9239 50.49C81.7711 49.9297 81.5419 49.4373 81.2362 49.0128C80.9306 48.5713 80.5486 48.2232 80.0901 47.9685C79.6317 47.6969 79.1053 47.561 78.511 47.561C77.2885 47.561 76.3631 47.9855 75.7349 48.8345C75.1236 49.6835 74.818 50.8126 74.818 52.2219C74.818 52.8841 74.8944 53.5039 75.0472 54.0812C75.217 54.6415 75.4632 55.1254 75.7858 55.5329C76.1084 55.9404 76.4905 56.263 76.9319 56.5007C77.3904 56.7385 77.9168 56.8573 78.511 56.8573C79.1732 56.8573 79.7336 56.7215 80.192 56.4498C80.6505 56.1781 81.024 55.83 81.3127 55.4056C81.6183 54.9641 81.8305 54.4717 81.9494 53.9283C82.0852 53.368 82.1531 52.7992 82.1531 52.2219ZM89.4202 54.5651C89.5051 55.4141 89.8277 56.0083 90.3881 56.3479C90.9484 56.6875 91.6191 56.8573 92.4001 56.8573C92.6718 56.8573 92.9774 56.8403 93.317 56.8064C93.6736 56.7554 94.0047 56.6705 94.3103 56.5517C94.616 56.4328 94.8622 56.263 95.0489 56.0423C95.2527 55.8046 95.3461 55.4989 95.3291 55.1254C95.3121 54.7519 95.1763 54.4462 94.9216 54.2085C94.6669 53.9708 94.3358 53.784 93.9283 53.6482C93.5378 53.4954 93.0878 53.368 92.5784 53.2661C92.069 53.1643 91.5512 53.0539 91.0248 52.935C90.4814 52.8162 89.9551 52.6719 89.4457 52.5021C88.9533 52.3323 88.5033 52.1031 88.0958 51.8144C87.7053 51.5257 87.3912 51.1607 87.1535 50.7192C86.9158 50.2608 86.7969 49.7005 86.7969 49.0383C86.7969 48.3251 86.9667 47.7308 87.3063 47.2554C87.6629 46.763 88.1043 46.3725 88.6307 46.0838C89.174 45.7782 89.7683 45.5659 90.4135 45.4471C91.0757 45.3282 91.704 45.2688 92.2983 45.2688C92.9774 45.2688 93.6227 45.3452 94.2339 45.498C94.8622 45.6339 95.4225 45.8631 95.9149 46.1857C96.4243 46.5083 96.8403 46.9328 97.1629 47.4592C97.5025 47.9685 97.7147 48.5883 97.7996 49.3184H94.7688C94.6329 48.6223 94.3103 48.1553 93.8009 47.9176C93.3085 47.6799 92.7397 47.561 92.0945 47.561C91.8907 47.561 91.6445 47.578 91.3559 47.612C91.0842 47.6459 90.821 47.7139 90.5663 47.8157C90.3286 47.9006 90.1249 48.0365 89.9551 48.2232C89.7853 48.393 89.7004 48.6223 89.7004 48.9109C89.7004 49.2675 89.8192 49.5561 90.057 49.7769C90.3117 49.9976 90.6343 50.1844 91.0248 50.3372C91.4323 50.473 91.8907 50.5919 92.4001 50.6938C92.9095 50.7956 93.4359 50.906 93.9792 51.0249C94.5056 51.1437 95.0235 51.288 95.5328 51.4578C96.0422 51.6276 96.4922 51.8568 96.8827 52.1455C97.2902 52.4341 97.6128 52.7992 97.8505 53.2407C98.1052 53.6821 98.2326 54.2255 98.2326 54.8707C98.2326 55.6518 98.0543 56.314 97.6977 56.8573C97.3412 57.4007 96.8742 57.8421 96.2969 58.1817C95.7366 58.5213 95.1084 58.7675 94.4122 58.9203C93.716 59.0731 93.0284 59.1495 92.3492 59.1495C91.5172 59.1495 90.7446 59.0562 90.0315 58.8694C89.3353 58.6826 88.7241 58.4024 88.1977 58.0289C87.6883 57.6384 87.2808 57.1629 86.9752 56.6026C86.6865 56.0253 86.5337 55.3461 86.5167 54.5651H89.4202ZM109.046 50.0316C108.927 49.2165 108.596 48.6053 108.052 48.1978C107.526 47.7733 106.855 47.561 106.04 47.561C105.667 47.561 105.268 47.629 104.843 47.7648C104.419 47.8836 104.028 48.1214 103.672 48.4779C103.315 48.8175 103.018 49.3014 102.78 49.9297C102.543 50.5409 102.424 51.3475 102.424 52.3493C102.424 52.8926 102.483 53.4359 102.602 53.9793C102.738 54.5226 102.942 55.0065 103.213 55.431C103.502 55.8555 103.867 56.2036 104.308 56.4753C104.75 56.73 105.285 56.8573 105.913 56.8573C106.762 56.8573 107.458 56.5941 108.001 56.0678C108.562 55.5414 108.91 54.8028 109.046 53.8519H111.949C111.677 55.5669 111.024 56.8828 109.988 57.7997C108.969 58.6996 107.611 59.1495 105.913 59.1495C104.877 59.1495 103.96 58.9797 103.162 58.6402C102.381 58.2836 101.719 57.8082 101.176 57.2139C100.632 56.6026 100.216 55.881 99.9277 55.049C99.656 54.217 99.5202 53.3171 99.5202 52.3493C99.5202 51.3644 99.656 50.4391 99.9277 49.5731C100.199 48.7072 100.607 47.9601 101.15 47.3318C101.694 46.6866 102.364 46.1857 103.162 45.8291C103.977 45.4556 104.928 45.2688 106.015 45.2688C106.779 45.2688 107.501 45.3707 108.18 45.5744C108.876 45.7612 109.487 46.0499 110.013 46.4404C110.557 46.8309 110.998 47.3233 111.338 47.9176C111.677 48.5119 111.881 49.2165 111.949 50.0316H109.046ZM114.029 45.6254H116.754V48.1723H116.805C116.89 47.8157 117.051 47.4676 117.289 47.1281C117.544 46.7885 117.841 46.4828 118.181 46.2112C118.537 45.9225 118.928 45.6933 119.352 45.5235C119.777 45.3537 120.21 45.2688 120.651 45.2688C120.991 45.2688 121.22 45.2773 121.339 45.2943C121.475 45.3113 121.61 45.3282 121.746 45.3452V48.1468C121.543 48.1129 121.33 48.0874 121.11 48.0704C120.906 48.0365 120.702 48.0195 120.498 48.0195C120.006 48.0195 119.539 48.1214 119.097 48.3251C118.673 48.5119 118.299 48.8005 117.977 49.1911C117.654 49.5646 117.4 50.0316 117.213 50.5919C117.026 51.1522 116.933 51.7974 116.933 52.5275V58.793H114.029V45.6254ZM122.779 40.6079H125.683V43.3586H122.779V40.6079ZM122.779 45.6254H125.683V58.793H122.779V45.6254ZM128.643 45.6254H131.393V47.4082H131.444C131.852 46.6441 132.421 46.1008 133.151 45.7782C133.881 45.4386 134.67 45.2688 135.519 45.2688C136.555 45.2688 137.455 45.4556 138.219 45.8291C139 46.1857 139.645 46.6866 140.155 47.3318C140.664 47.9601 141.046 48.6987 141.301 49.5476C141.556 50.3966 141.683 51.305 141.683 52.2728C141.683 53.1558 141.564 54.0132 141.326 54.8452C141.106 55.6772 140.758 56.4158 140.282 57.0611C139.824 57.6893 139.238 58.1987 138.525 58.5892C137.812 58.9628 136.971 59.1495 136.003 59.1495C135.579 59.1495 135.154 59.1071 134.73 59.0222C134.305 58.9543 133.898 58.8354 133.507 58.6656C133.117 58.4958 132.752 58.2836 132.412 58.0289C132.089 57.7572 131.818 57.4431 131.597 57.0865H131.546V63.6576H128.643V45.6254ZM138.779 52.2219C138.779 51.6276 138.703 51.0503 138.55 50.49C138.397 49.9297 138.168 49.4373 137.863 49.0128C137.557 48.5713 137.175 48.2232 136.716 47.9685C136.258 47.6969 135.732 47.561 135.137 47.561C133.915 47.561 132.989 47.9855 132.361 48.8345C131.75 49.6835 131.444 50.8126 131.444 52.2219C131.444 52.8841 131.521 53.5039 131.673 54.0812C131.843 54.6415 132.089 55.1254 132.412 55.5329C132.735 55.9404 133.117 56.263 133.558 56.5007C134.017 56.7385 134.543 56.8573 135.137 56.8573C135.8 56.8573 136.36 56.7215 136.818 56.4498C137.277 56.1781 137.65 55.83 137.939 55.4056C138.245 54.9641 138.457 54.4717 138.576 53.9283C138.711 53.368 138.779 52.7992 138.779 52.2219ZM142.532 45.6254H144.722V41.6776H147.626V45.6254H150.249V47.7903H147.626V54.8198C147.626 55.1254 147.634 55.3886 147.651 55.6093C147.685 55.83 147.744 56.0168 147.829 56.1696C147.931 56.3225 148.076 56.4413 148.262 56.5262C148.449 56.5941 148.704 56.6281 149.026 56.6281C149.23 56.6281 149.434 56.6281 149.638 56.6281C149.841 56.6111 150.045 56.5771 150.249 56.5262V58.7675C149.926 58.8015 149.612 58.8354 149.307 58.8694C149.001 58.9033 148.687 58.9203 148.364 58.9203C147.6 58.9203 146.98 58.8524 146.505 58.7166C146.046 58.5637 145.681 58.3515 145.41 58.0798C145.155 57.7912 144.977 57.4346 144.875 57.0101C144.79 56.5856 144.739 56.1017 144.722 55.5584V47.7903H142.532V45.6254ZM152.134 40.6079H155.037V43.3586H152.134V40.6079ZM152.134 45.6254H155.037V58.793H152.134V45.6254ZM163.957 59.1495C162.904 59.1495 161.962 58.9797 161.13 58.6402C160.315 58.2836 159.619 57.7997 159.041 57.1884C158.481 56.5771 158.048 55.847 157.742 54.9981C157.454 54.1491 157.309 53.2152 157.309 52.1964C157.309 51.1946 157.454 50.2693 157.742 49.4203C158.048 48.5713 158.481 47.8412 159.041 47.2299C159.619 46.6187 160.315 46.1432 161.13 45.8037C161.962 45.4471 162.904 45.2688 163.957 45.2688C165.01 45.2688 165.944 45.4471 166.759 45.8037C167.591 46.1432 168.287 46.6187 168.847 47.2299C169.424 47.8412 169.857 48.5713 170.146 49.4203C170.452 50.2693 170.604 51.1946 170.604 52.1964C170.604 53.2152 170.452 54.1491 170.146 54.9981C169.857 55.847 169.424 56.5771 168.847 57.1884C168.287 57.7997 167.591 58.2836 166.759 58.6402C165.944 58.9797 165.01 59.1495 163.957 59.1495ZM163.957 56.8573C164.602 56.8573 165.162 56.7215 165.638 56.4498C166.113 56.1781 166.504 55.8216 166.809 55.3801C167.115 54.9386 167.336 54.4462 167.472 53.9029C167.625 53.3426 167.701 52.7737 167.701 52.1964C167.701 51.6361 167.625 51.0758 167.472 50.5155C167.336 49.9551 167.115 49.4627 166.809 49.0383C166.504 48.5968 166.113 48.2402 165.638 47.9685C165.162 47.6969 164.602 47.561 163.957 47.561C163.312 47.561 162.751 47.6969 162.276 47.9685C161.801 48.2402 161.41 48.5968 161.104 49.0383C160.799 49.4627 160.57 49.9551 160.417 50.5155C160.281 51.0758 160.213 51.6361 160.213 52.1964C160.213 52.7737 160.281 53.3426 160.417 53.9029C160.57 54.4462 160.799 54.9386 161.104 55.3801C161.41 55.8216 161.801 56.1781 162.276 56.4498C162.751 56.7215 163.312 56.8573 163.957 56.8573ZM172.738 45.6254H175.489V47.561L175.54 47.612C175.981 46.8819 176.558 46.313 177.272 45.9055C177.985 45.481 178.774 45.2688 179.64 45.2688C181.083 45.2688 182.221 45.6424 183.053 46.3895C183.885 47.1365 184.301 48.2572 184.301 49.7514V58.793H181.398V50.5155C181.364 49.4797 181.143 48.7326 180.735 48.2742C180.328 47.7987 179.691 47.561 178.825 47.561C178.333 47.561 177.891 47.6544 177.501 47.8412C177.11 48.011 176.779 48.2572 176.508 48.5798C176.236 48.8854 176.024 49.2505 175.871 49.675C175.718 50.0995 175.642 50.5494 175.642 51.0249V58.793H172.738V45.6254ZM189.273 54.5651C189.358 55.4141 189.681 56.0083 190.241 56.3479C190.801 56.6875 191.472 56.8573 192.253 56.8573C192.525 56.8573 192.83 56.8403 193.17 56.8064C193.527 56.7554 193.858 56.6705 194.163 56.5517C194.469 56.4328 194.715 56.263 194.902 56.0423C195.106 55.8046 195.199 55.4989 195.182 55.1254C195.165 54.7519 195.029 54.4462 194.775 54.2085C194.52 53.9708 194.189 53.784 193.781 53.6482C193.391 53.4954 192.941 53.368 192.431 53.2661C191.922 53.1643 191.404 53.0539 190.878 52.935C190.334 52.8162 189.808 52.6719 189.299 52.5021C188.806 52.3323 188.356 52.1031 187.949 51.8144C187.558 51.5257 187.244 51.1607 187.006 50.7192C186.769 50.2608 186.65 49.7005 186.65 49.0383C186.65 48.3251 186.82 47.7308 187.159 47.2554C187.516 46.763 187.957 46.3725 188.484 46.0838C189.027 45.7782 189.621 45.5659 190.266 45.4471C190.929 45.3282 191.557 45.2688 192.151 45.2688C192.83 45.2688 193.476 45.3452 194.087 45.498C194.715 45.6339 195.275 45.8631 195.768 46.1857C196.277 46.5083 196.693 46.9328 197.016 47.4592C197.355 47.9685 197.568 48.5883 197.653 49.3184H194.622C194.486 48.6223 194.163 48.1553 193.654 47.9176C193.161 47.6799 192.593 47.561 191.947 47.561C191.744 47.561 191.497 47.578 191.209 47.612C190.937 47.6459 190.674 47.7139 190.419 47.8157C190.182 47.9006 189.978 48.0365 189.808 48.2232C189.638 48.393 189.553 48.6223 189.553 48.9109C189.553 49.2675 189.672 49.5561 189.91 49.7769C190.165 49.9976 190.487 50.1844 190.878 50.3372C191.285 50.473 191.744 50.5919 192.253 50.6938C192.762 50.7956 193.289 50.906 193.832 51.0249C194.359 51.1437 194.876 51.288 195.386 51.4578C195.895 51.6276 196.345 51.8568 196.736 52.1455C197.143 52.4341 197.466 52.7992 197.703 53.2407C197.958 53.6821 198.086 54.2255 198.086 54.8707C198.086 55.6518 197.907 56.314 197.551 56.8573C197.194 57.4007 196.727 57.8421 196.15 58.1817C195.59 58.5213 194.961 58.7675 194.265 58.9203C193.569 59.0731 192.881 59.1495 192.202 59.1495C191.37 59.1495 190.598 59.0562 189.884 58.8694C189.188 58.6826 188.577 58.4024 188.051 58.0289C187.541 57.6384 187.134 57.1629 186.828 56.6026C186.539 56.0253 186.387 55.3461 186.37 54.5651H189.273Z" fill="#4D4D4D"/>
<path d="M57.9552 118.676V88.1127H53.0214C52.8468 89.277 52.4829 90.2521 51.9299 91.038C51.3768 91.8239 50.6928 92.4643 49.8778 92.9591C49.0919 93.4249 48.1895 93.7596 47.1708 93.9633C46.1811 94.138 45.1478 94.2108 44.0708 94.1817V98.8534H51.7552V118.676H57.9552ZM67.7643 111.952V118.676H70.908C70.9371 119.142 70.8789 119.593 70.7333 120.029C70.5878 120.495 70.3695 120.903 70.0784 121.252C69.7873 121.63 69.438 121.95 69.0305 122.212C68.6521 122.474 68.2446 122.649 67.808 122.736V125.88C68.7395 125.734 69.6127 125.458 70.4277 125.05C71.2718 124.672 71.9995 124.177 72.6108 123.566C73.222 122.955 73.7023 122.227 74.0516 121.383C74.43 120.568 74.6192 119.665 74.6192 118.676V111.952H67.7643ZM87.2077 100.469V104.835C87.9645 104.835 88.7504 104.864 89.5654 104.922C90.4096 104.952 91.1809 105.112 91.8795 105.403C92.5781 105.665 93.1457 106.101 93.5823 106.713C94.048 107.324 94.2809 108.212 94.2809 109.376C94.2809 110.86 93.8006 112.039 92.8401 112.912C91.8795 113.757 90.7006 114.179 89.3035 114.179C88.4011 114.179 87.6152 114.019 86.9457 113.698C86.3054 113.378 85.7669 112.956 85.3303 112.432C84.8937 111.879 84.5589 111.239 84.3261 110.511C84.0932 109.754 83.9622 108.968 83.9331 108.153H78.0388C78.0097 109.929 78.2571 111.501 78.781 112.869C79.3341 114.237 80.1054 115.401 81.0951 116.362C82.0848 117.293 83.2782 118.006 84.6753 118.501C86.1016 118.996 87.6734 119.243 89.3908 119.243C90.8753 119.243 92.3016 119.025 93.6696 118.588C95.0377 118.152 96.2457 117.511 97.2935 116.667C98.3414 115.823 99.171 114.775 99.7822 113.524C100.423 112.272 100.743 110.846 100.743 109.245C100.743 107.498 100.263 105.999 99.302 104.748C98.3414 103.496 97.017 102.681 95.3288 102.303V102.215C96.755 101.808 97.8175 101.037 98.5161 99.9013C99.2437 98.7661 99.6076 97.4563 99.6076 95.9718C99.6076 94.6037 99.302 93.3957 98.6907 92.3479C98.0794 91.3 97.279 90.4122 96.2893 89.6845C95.3288 88.9568 94.2372 88.4183 93.0147 88.069C91.7922 87.6906 90.5697 87.5014 89.3471 87.5014C87.7753 87.5014 86.349 87.7634 85.0683 88.2873C83.7876 88.7822 82.6815 89.4953 81.75 90.4268C80.8477 91.3582 80.1345 92.4789 79.6106 93.7887C79.1158 95.0694 78.8393 96.4957 78.781 98.0675H84.6753C84.6462 96.4957 85.0246 95.2004 85.8105 94.1817C86.6256 93.1338 87.819 92.6098 89.3908 92.6098C90.526 92.6098 91.5302 92.9591 92.4034 93.6577C93.2767 94.3563 93.7133 95.3605 93.7133 96.6704C93.7133 97.5436 93.495 98.2422 93.0584 98.7661C92.6509 99.2901 92.1124 99.6976 91.4429 99.9886C90.8025 100.251 90.1039 100.411 89.3471 100.469C88.5903 100.527 87.8772 100.527 87.2077 100.469ZM108.631 103.263C108.631 102.739 108.631 102.114 108.631 101.386C108.66 100.629 108.718 99.8577 108.806 99.0717C108.893 98.2858 109.038 97.5145 109.242 96.7577C109.446 95.9718 109.722 95.2732 110.072 94.6619C110.45 94.0507 110.916 93.5558 111.469 93.1774C112.051 92.799 112.764 92.6098 113.608 92.6098C114.452 92.6098 115.166 92.799 115.748 93.1774C116.33 93.5558 116.81 94.0507 117.189 94.6619C117.567 95.2732 117.843 95.9718 118.018 96.7577C118.222 97.5145 118.367 98.2858 118.455 99.0717C118.571 99.8577 118.629 100.629 118.629 101.386C118.658 102.114 118.673 102.739 118.673 103.263C118.673 104.136 118.644 105.199 118.586 106.451C118.527 107.673 118.338 108.866 118.018 110.031C117.727 111.166 117.232 112.141 116.534 112.956C115.864 113.771 114.889 114.179 113.608 114.179C112.357 114.179 111.396 113.771 110.727 112.956C110.057 112.141 109.562 111.166 109.242 110.031C108.951 108.866 108.776 107.673 108.718 106.451C108.66 105.199 108.631 104.136 108.631 103.263ZM102.431 103.263C102.431 106.32 102.722 108.881 103.304 110.948C103.915 112.985 104.73 114.615 105.749 115.838C106.768 117.06 107.947 117.934 109.286 118.457C110.654 118.981 112.095 119.243 113.608 119.243C115.151 119.243 116.592 118.981 117.931 118.457C119.299 117.934 120.492 117.06 121.511 115.838C122.559 114.615 123.374 112.985 123.956 110.948C124.567 108.881 124.873 106.32 124.873 103.263C124.873 100.294 124.567 97.8056 123.956 95.7971C123.374 93.7596 122.559 92.1296 121.511 90.907C120.492 89.6845 119.299 88.8113 117.931 88.2873C116.592 87.7634 115.151 87.5014 113.608 87.5014C112.095 87.5014 110.654 87.7634 109.286 88.2873C107.947 88.8113 106.768 89.6845 105.749 90.907C104.73 92.1296 103.915 93.7596 103.304 95.7971C102.722 97.8056 102.431 100.294 102.431 103.263ZM127.391 99.8577H133.329C133.329 99.0426 133.401 98.2276 133.547 97.4126C133.722 96.5685 133.998 95.8117 134.377 95.1422C134.755 94.4436 135.25 93.8906 135.861 93.4831C136.501 93.0465 137.273 92.8281 138.175 92.8281C139.514 92.8281 140.606 93.2502 141.45 94.0943C142.323 94.9093 142.76 96.0591 142.76 97.5436C142.76 98.475 142.541 99.3046 142.105 100.032C141.697 100.76 141.173 101.415 140.533 101.997C139.922 102.579 139.237 103.118 138.481 103.613C137.724 104.078 137.011 104.544 136.341 105.01C135.031 105.912 133.78 106.8 132.586 107.673C131.422 108.546 130.403 109.507 129.53 110.555C128.657 111.574 127.958 112.738 127.434 114.048C126.939 115.358 126.692 116.9 126.692 118.676H149.134V113.349H134.682C135.439 112.301 136.312 111.384 137.302 110.598C138.291 109.812 139.31 109.085 140.358 108.415C141.406 107.717 142.439 107.018 143.458 106.32C144.506 105.621 145.437 104.85 146.252 104.006C147.067 103.132 147.722 102.143 148.217 101.037C148.712 99.9304 148.959 98.606 148.959 97.0633C148.959 95.5788 148.668 94.2399 148.086 93.0465C147.533 91.853 146.776 90.8488 145.816 90.0338C144.855 89.2188 143.735 88.593 142.454 88.1564C141.202 87.7197 139.878 87.5014 138.481 87.5014C136.647 87.5014 135.017 87.8216 133.591 88.462C132.193 89.0733 131.029 89.9465 130.098 91.0817C129.166 92.1878 128.468 93.4976 128.002 95.0112C127.536 96.4957 127.332 98.1112 127.391 99.8577Z" fill="black"/>
<rect x="39.8359" y="226.631" width="21.5946" height="14.5538" rx="5.45769" fill="#2B65F8"/>
<path d="M76.0602 241.24C75.397 241.236 74.7569 241.124 74.1399 240.906C73.5271 240.688 72.9773 240.333 72.4904 239.842C72.0035 239.351 71.6173 238.7 71.3319 237.89C71.0507 237.08 70.9101 236.085 70.9101 234.906C70.9143 233.823 71.0381 232.856 71.2815 232.004C71.5292 231.147 71.8818 230.421 72.3393 229.825C72.801 229.229 73.3529 228.776 73.9951 228.465C74.6373 228.15 75.3572 227.993 76.1546 227.993C77.0151 227.993 77.7748 228.161 78.4338 228.497C79.0928 228.828 79.6216 229.279 80.0204 229.85C80.4233 230.421 80.6668 231.061 80.7507 231.771H78.0623C77.9574 231.321 77.737 230.969 77.4013 230.713C77.0655 230.457 76.6499 230.329 76.1546 230.329C75.3152 230.329 74.6772 230.694 74.2407 231.424C73.8083 232.155 73.588 233.147 73.5796 234.402H73.6677C73.8608 234.02 74.121 233.695 74.4484 233.426C74.78 233.154 75.1557 232.946 75.5754 232.803C75.9993 232.656 76.4464 232.583 76.9165 232.583C77.6804 232.583 78.3603 232.763 78.9564 233.124C79.5524 233.481 80.0225 233.972 80.3667 234.597C80.7109 235.223 80.8829 235.939 80.8829 236.744C80.8829 237.617 80.6794 238.394 80.2722 239.074C79.8693 239.754 79.3047 240.287 78.5786 240.673C77.8567 241.055 77.0172 241.244 76.0602 241.24ZM76.0476 239.099C76.4673 239.099 76.843 238.998 77.1746 238.797C77.5062 238.595 77.7664 238.323 77.9553 237.978C78.1442 237.634 78.2386 237.248 78.2386 236.82C78.2386 236.392 78.1442 236.008 77.9553 235.668C77.7706 235.328 77.5146 235.057 77.1872 234.856C76.8598 234.654 76.4862 234.553 76.0665 234.553C75.7517 234.553 75.46 234.612 75.1914 234.73C74.9269 234.847 74.694 235.011 74.4925 235.221C74.2952 235.431 74.1399 235.674 74.0266 235.951C73.9133 236.224 73.8566 236.516 73.8566 236.826C73.8566 237.242 73.951 237.622 74.1399 237.966C74.333 238.31 74.5932 238.585 74.9206 238.791C75.2522 238.996 75.6279 239.099 76.0476 239.099ZM87.8715 241.347C86.7886 241.343 85.8568 241.076 85.0761 240.547C84.2996 240.018 83.7015 239.252 83.2817 238.249C82.8662 237.246 82.6605 236.039 82.6647 234.629C82.6647 233.223 82.8725 232.025 83.288 231.034C83.7078 230.043 84.3059 229.29 85.0824 228.774C85.8631 228.253 86.7928 227.993 87.8715 227.993C88.9502 227.993 89.8778 228.253 90.6544 228.774C91.4351 229.294 92.0353 230.05 92.455 231.04C92.8747 232.027 93.0825 233.223 93.0783 234.629C93.0783 236.043 92.8684 237.252 92.4487 238.255C92.0332 239.259 91.4372 240.025 90.6606 240.553C89.8841 241.082 88.9544 241.347 87.8715 241.347ZM87.8715 239.087C88.6102 239.087 89.2 238.715 89.6407 237.972C90.0814 237.229 90.2997 236.115 90.2955 234.629C90.2955 233.651 90.1947 232.837 89.9933 232.186C89.796 231.536 89.5148 231.047 89.1496 230.719C88.7886 230.392 88.3626 230.228 87.8715 230.228C87.137 230.228 86.5494 230.595 86.1086 231.33C85.6679 232.064 85.4455 233.164 85.4413 234.629C85.4413 235.62 85.5399 236.446 85.7372 237.11C85.9386 237.769 86.222 238.264 86.5871 238.595C86.9523 238.923 87.3804 239.087 87.8715 239.087ZM102.08 238.646V237.966C102.08 237.45 102.189 236.975 102.407 236.543C102.63 236.106 102.951 235.758 103.371 235.498C103.795 235.233 104.311 235.101 104.92 235.101C105.537 235.101 106.055 235.231 106.475 235.492C106.899 235.752 107.218 236.1 107.432 236.537C107.65 236.969 107.759 237.445 107.759 237.966V238.646C107.759 239.162 107.65 239.638 107.432 240.075C107.213 240.507 106.892 240.854 106.468 241.114C106.044 241.378 105.528 241.51 104.92 241.51C104.303 241.51 103.784 241.378 103.364 241.114C102.945 240.854 102.626 240.507 102.407 240.075C102.189 239.638 102.08 239.162 102.08 238.646ZM103.912 237.966V238.646C103.912 238.944 103.984 239.225 104.126 239.489C104.273 239.754 104.538 239.886 104.92 239.886C105.301 239.886 105.562 239.756 105.7 239.496C105.843 239.236 105.914 238.952 105.914 238.646V237.966C105.914 237.659 105.847 237.374 105.713 237.11C105.579 236.845 105.314 236.713 104.92 236.713C104.542 236.713 104.279 236.845 104.133 237.11C103.986 237.374 103.912 237.659 103.912 237.966ZM95.4629 231.267V230.587C95.4629 230.066 95.5742 229.59 95.7966 229.158C96.0191 228.721 96.3402 228.373 96.7599 228.113C97.1838 227.852 97.6959 227.722 98.2961 227.722C98.9173 227.722 99.4378 227.852 99.8575 228.113C100.277 228.373 100.596 228.721 100.815 229.158C101.033 229.59 101.142 230.066 101.142 230.587V231.267C101.142 231.787 101.031 232.264 100.808 232.696C100.59 233.128 100.269 233.475 99.8449 233.735C99.4252 233.991 98.9089 234.119 98.2961 234.119C97.6833 234.119 97.1649 233.989 96.741 233.729C96.3213 233.464 96.0023 233.118 95.784 232.69C95.57 232.257 95.4629 231.783 95.4629 231.267ZM97.3077 230.587V231.267C97.3077 231.573 97.379 231.857 97.5217 232.117C97.6686 232.377 97.9268 232.507 98.2961 232.507C98.6823 232.507 98.9446 232.377 99.0831 232.117C99.2258 231.857 99.2972 231.573 99.2972 231.267V230.587C99.2972 230.281 99.23 229.995 99.0957 229.731C98.9614 229.466 98.6949 229.334 98.2961 229.334C97.9226 229.334 97.6644 229.468 97.5217 229.737C97.379 230.006 97.3077 230.289 97.3077 230.587ZM96.294 241.063L105.159 228.169H106.808L97.9436 241.063H96.294Z" fill="black" fill-opacity="0.7"/>
<path d="M115.322 241.063V228.169H119.918C120.921 228.169 121.752 228.352 122.411 228.717C123.07 229.082 123.564 229.582 123.891 230.215C124.218 230.845 124.382 231.554 124.382 232.344C124.382 233.137 124.216 233.85 123.885 234.484C123.557 235.114 123.062 235.613 122.399 235.983C121.74 236.348 120.911 236.53 119.912 236.53H116.751V234.881H119.736C120.369 234.881 120.884 234.772 121.278 234.553C121.673 234.331 121.962 234.029 122.147 233.647C122.332 233.265 122.424 232.83 122.424 232.344C122.424 231.857 122.332 231.424 122.147 231.047C121.962 230.669 121.671 230.373 121.272 230.159C120.877 229.945 120.357 229.838 119.71 229.838H117.268V241.063H115.322ZM129.239 241.278C128.627 241.278 128.073 241.164 127.577 240.938C127.082 240.707 126.69 240.373 126.4 239.936C126.115 239.5 125.972 238.965 125.972 238.331C125.972 237.785 126.077 237.336 126.287 236.984C126.496 236.631 126.78 236.352 127.137 236.146C127.493 235.941 127.892 235.785 128.333 235.68C128.774 235.575 129.223 235.496 129.68 235.441C130.259 235.374 130.729 235.319 131.09 235.277C131.451 235.231 131.714 235.158 131.877 235.057C132.041 234.956 132.123 234.793 132.123 234.566V234.522C132.123 233.972 131.968 233.546 131.657 233.244C131.351 232.942 130.893 232.791 130.285 232.791C129.651 232.791 129.151 232.931 128.786 233.212C128.425 233.489 128.175 233.798 128.037 234.138L126.268 233.735C126.478 233.147 126.784 232.673 127.187 232.312C127.594 231.947 128.062 231.682 128.591 231.519C129.12 231.351 129.676 231.267 130.259 231.267C130.646 231.267 131.055 231.313 131.487 231.405C131.924 231.494 132.331 231.657 132.709 231.896C133.09 232.136 133.403 232.478 133.647 232.923C133.89 233.363 134.012 233.936 134.012 234.642V241.063H132.173V239.741H132.098C131.976 239.985 131.794 240.224 131.55 240.459C131.307 240.694 130.994 240.889 130.612 241.045C130.23 241.2 129.772 241.278 129.239 241.278ZM129.649 239.766C130.169 239.766 130.614 239.664 130.983 239.458C131.357 239.252 131.64 238.984 131.833 238.652C132.031 238.316 132.129 237.957 132.129 237.575V236.329C132.062 236.396 131.932 236.459 131.739 236.518C131.55 236.572 131.334 236.621 131.09 236.663C130.847 236.7 130.61 236.736 130.379 236.77C130.148 236.799 129.955 236.824 129.8 236.845C129.435 236.891 129.101 236.969 128.799 237.078C128.501 237.187 128.261 237.345 128.081 237.55C127.905 237.752 127.817 238.02 127.817 238.356C127.817 238.822 127.989 239.175 128.333 239.414C128.677 239.649 129.116 239.766 129.649 239.766ZM136.519 241.063V231.393H138.402V241.063H136.519ZM137.47 229.901C137.142 229.901 136.861 229.792 136.626 229.573C136.395 229.351 136.28 229.086 136.28 228.78C136.28 228.469 136.395 228.205 136.626 227.987C136.861 227.764 137.142 227.653 137.47 227.653C137.797 227.653 138.076 227.764 138.307 227.987C138.542 228.205 138.66 228.469 138.66 228.78C138.66 229.086 138.542 229.351 138.307 229.573C138.076 229.792 137.797 229.901 137.47 229.901ZM144.554 241.252C143.774 241.252 143.077 241.053 142.464 240.654C141.856 240.251 141.377 239.678 141.029 238.935C140.685 238.188 140.512 237.292 140.512 236.247C140.512 235.202 140.687 234.308 141.035 233.565C141.388 232.822 141.87 232.253 142.483 231.859C143.096 231.464 143.791 231.267 144.567 231.267C145.167 231.267 145.65 231.368 146.015 231.569C146.385 231.766 146.67 231.997 146.871 232.262C147.077 232.526 147.237 232.759 147.35 232.961H147.463V228.169H149.346V241.063H147.507V239.559H147.35C147.237 239.764 147.073 239.999 146.859 240.264C146.649 240.528 146.359 240.759 145.99 240.956C145.621 241.154 145.142 241.252 144.554 241.252ZM144.97 239.647C145.511 239.647 145.969 239.504 146.343 239.219C146.72 238.929 147.006 238.528 147.199 238.016C147.396 237.504 147.495 236.908 147.495 236.228C147.495 235.557 147.398 234.969 147.205 234.465C147.012 233.962 146.729 233.569 146.355 233.288C145.982 233.007 145.52 232.866 144.97 232.866C144.403 232.866 143.931 233.013 143.553 233.307C143.176 233.601 142.89 234.001 142.697 234.509C142.508 235.017 142.414 235.59 142.414 236.228C142.414 236.875 142.51 237.456 142.703 237.972C142.897 238.488 143.182 238.898 143.56 239.2C143.942 239.498 144.412 239.647 144.97 239.647Z" fill="black" fill-opacity="0.5"/>
<rect x="39.8359" y="263.016" width="21.5946" height="14.5538" rx="5.45769" fill="#EBEBEB"/>
<path d="M70.9164 275.193V273.046L76.2995 264.566H78.1505V267.537H77.055L73.6614 272.908V273.009H81.3111V275.193H70.9164ZM77.1053 277.46V274.539L77.1557 273.588V264.566H79.7119V277.46H77.1053ZM88.1832 277.743C87.1003 277.739 86.1684 277.473 85.3877 276.944C84.6112 276.415 84.0131 275.649 83.5934 274.646C83.1778 273.642 82.9722 272.436 82.9764 271.025C82.9764 269.619 83.1841 268.421 83.5997 267.43C84.0194 266.44 84.6175 265.686 85.394 265.17C86.1747 264.65 87.1045 264.389 88.1832 264.389C89.2619 264.389 90.1895 264.65 90.966 265.17C91.7467 265.691 92.3469 266.446 92.7667 267.437C93.1864 268.423 93.3942 269.619 93.39 271.025C93.39 272.44 93.1801 273.649 92.7604 274.652C92.3448 275.655 91.7488 276.421 90.9723 276.95C90.1958 277.479 89.2661 277.743 88.1832 277.743ZM88.1832 275.483C88.9219 275.483 89.5116 275.112 89.9523 274.369C90.3931 273.626 90.6113 272.511 90.6071 271.025C90.6071 270.047 90.5064 269.233 90.3049 268.583C90.1076 267.932 89.8264 267.443 89.4613 267.116C89.1003 266.788 88.6743 266.625 88.1832 266.625C87.4486 266.625 86.861 266.992 86.4203 267.726C85.9796 268.461 85.7571 269.561 85.7529 271.025C85.7529 272.016 85.8515 272.843 86.0488 273.506C86.2503 274.165 86.5336 274.66 86.8988 274.992C87.264 275.319 87.6921 275.483 88.1832 275.483ZM102.392 275.042V274.362C102.392 273.846 102.501 273.372 102.719 272.939C102.942 272.503 103.263 272.155 103.682 271.894C104.106 271.63 104.623 271.498 105.231 271.498C105.848 271.498 106.367 271.628 106.786 271.888C107.21 272.148 107.529 272.497 107.743 272.933C107.962 273.365 108.071 273.842 108.071 274.362V275.042C108.071 275.559 107.962 276.035 107.743 276.471C107.525 276.904 107.204 277.25 106.78 277.51C106.356 277.775 105.84 277.907 105.231 277.907C104.614 277.907 104.096 277.775 103.676 277.51C103.256 277.25 102.937 276.904 102.719 276.471C102.501 276.035 102.392 275.559 102.392 275.042ZM104.224 274.362V275.042C104.224 275.34 104.295 275.622 104.438 275.886C104.585 276.15 104.849 276.283 105.231 276.283C105.613 276.283 105.873 276.152 106.012 275.892C106.155 275.632 106.226 275.349 106.226 275.042V274.362C106.226 274.056 106.159 273.771 106.024 273.506C105.89 273.242 105.626 273.109 105.231 273.109C104.853 273.109 104.591 273.242 104.444 273.506C104.297 273.771 104.224 274.056 104.224 274.362ZM95.7746 267.663V266.983C95.7746 266.463 95.8858 265.987 96.1083 265.554C96.3307 265.118 96.6518 264.769 97.0716 264.509C97.4955 264.249 98.0076 264.119 98.6078 264.119C99.229 264.119 99.7495 264.249 100.169 264.509C100.589 264.769 100.908 265.118 101.126 265.554C101.344 265.987 101.454 266.463 101.454 266.983V267.663C101.454 268.184 101.342 268.66 101.12 269.093C100.902 269.525 100.581 269.871 100.157 270.131C99.7369 270.387 99.2206 270.515 98.6078 270.515C97.995 270.515 97.4766 270.385 97.0527 270.125C96.6329 269.861 96.3139 269.514 96.0957 269.086C95.8816 268.654 95.7746 268.18 95.7746 267.663ZM97.6193 266.983V267.663C97.6193 267.97 97.6907 268.253 97.8334 268.513C97.9803 268.774 98.2384 268.904 98.6078 268.904C98.9939 268.904 99.2563 268.774 99.3948 268.513C99.5375 268.253 99.6088 267.97 99.6088 267.663V266.983C99.6088 266.677 99.5417 266.392 99.4074 266.127C99.2731 265.863 99.0065 265.73 98.6078 265.73C98.2342 265.73 97.9761 265.865 97.8334 266.133C97.6907 266.402 97.6193 266.685 97.6193 266.983ZM96.6057 277.46L105.47 264.566H107.12L98.2552 277.46H96.6057Z" fill="black" fill-opacity="0.7"/>
<path d="M114.998 266.24V264.566H124.977V266.24H120.954V277.46H119.015V266.24H114.998ZM126.027 277.46V267.789H127.846V269.326H127.947C128.123 268.805 128.434 268.396 128.879 268.098C129.328 267.796 129.836 267.644 130.403 267.644C130.52 267.644 130.659 267.649 130.818 267.657C130.982 267.665 131.11 267.676 131.202 267.689V269.489C131.127 269.468 130.992 269.445 130.799 269.42C130.606 269.391 130.413 269.376 130.22 269.376C129.775 269.376 129.378 269.47 129.03 269.659C128.686 269.844 128.413 270.102 128.212 270.434C128.01 270.761 127.909 271.135 127.909 271.554V277.46H126.027ZM132.831 277.46V267.789H134.714V277.46H132.831ZM133.782 266.297C133.455 266.297 133.173 266.188 132.938 265.97C132.707 265.747 132.592 265.483 132.592 265.176C132.592 264.866 132.707 264.601 132.938 264.383C133.173 264.161 133.455 264.049 133.782 264.049C134.109 264.049 134.389 264.161 134.619 264.383C134.854 264.601 134.972 264.866 134.972 265.176C134.972 265.483 134.854 265.747 134.619 265.97C134.389 266.188 134.109 266.297 133.782 266.297ZM140.061 277.674C139.448 277.674 138.894 277.561 138.399 277.334C137.903 277.103 137.511 276.769 137.221 276.333C136.936 275.896 136.793 275.361 136.793 274.727C136.793 274.182 136.898 273.733 137.108 273.38C137.318 273.028 137.601 272.748 137.958 272.543C138.315 272.337 138.713 272.182 139.154 272.077C139.595 271.972 140.044 271.892 140.501 271.838C141.081 271.77 141.551 271.716 141.912 271.674C142.273 271.628 142.535 271.554 142.699 271.454C142.862 271.353 142.944 271.189 142.944 270.962V270.918C142.944 270.369 142.789 269.943 142.478 269.64C142.172 269.338 141.714 269.187 141.106 269.187C140.472 269.187 139.973 269.328 139.607 269.609C139.246 269.886 138.997 270.194 138.858 270.534L137.089 270.131C137.299 269.544 137.605 269.069 138.008 268.709C138.415 268.343 138.883 268.079 139.412 267.915C139.941 267.747 140.497 267.663 141.081 267.663C141.467 267.663 141.876 267.71 142.308 267.802C142.745 267.89 143.152 268.054 143.53 268.293C143.912 268.532 144.224 268.874 144.468 269.319C144.711 269.76 144.833 270.333 144.833 271.038V277.46H142.995V276.138H142.919C142.797 276.381 142.615 276.62 142.371 276.856C142.128 277.091 141.815 277.286 141.433 277.441C141.051 277.596 140.594 277.674 140.061 277.674ZM140.47 276.163C140.99 276.163 141.435 276.06 141.805 275.854C142.178 275.649 142.462 275.38 142.655 275.049C142.852 274.713 142.951 274.354 142.951 273.972V272.725C142.883 272.793 142.753 272.855 142.56 272.914C142.371 272.969 142.155 273.017 141.912 273.059C141.668 273.097 141.431 273.133 141.2 273.166C140.969 273.195 140.776 273.221 140.621 273.242C140.256 273.288 139.922 273.365 139.62 273.475C139.322 273.584 139.083 273.741 138.902 273.947C138.726 274.148 138.638 274.417 138.638 274.753C138.638 275.219 138.81 275.571 139.154 275.81C139.498 276.045 139.937 276.163 140.47 276.163ZM149.223 264.566V277.46H147.34V264.566H149.223Z" fill="black" fill-opacity="0.5"/>
<mask id="path-8-inside-1_280_7371" fill="white">
<path d="M404.927 110.927C405.066 105.905 409.259 101.907 414.251 102.471C432.653 104.55 450.261 111.361 465.325 122.31C482.849 135.048 496.109 152.788 503.365 173.2C510.62 193.613 511.53 215.743 505.976 236.682C501.202 254.683 491.843 271.079 478.88 284.306C475.364 287.894 469.589 287.439 466.311 283.632L443.158 256.735C439.88 252.928 440.382 247.225 443.582 243.352C448.495 237.407 452.093 230.444 454.088 222.92C456.865 212.45 456.41 201.385 452.782 191.179C449.155 180.973 442.524 172.102 433.763 165.734C427.466 161.157 420.281 158.027 412.718 156.515C407.791 155.531 403.803 151.425 403.942 146.403L404.927 110.927Z"/>
</mask>
<path d="M404.927 110.927C405.066 105.905 409.259 101.907 414.251 102.471C432.653 104.55 450.261 111.361 465.325 122.31C482.849 135.048 496.109 152.788 503.365 173.2C510.62 193.613 511.53 215.743 505.976 236.682C501.202 254.683 491.843 271.079 478.88 284.306C475.364 287.894 469.589 287.439 466.311 283.632L443.158 256.735C439.88 252.928 440.382 247.225 443.582 243.352C448.495 237.407 452.093 230.444 454.088 222.92C456.865 212.45 456.41 201.385 452.782 191.179C449.155 180.973 442.524 172.102 433.763 165.734C427.466 161.157 420.281 158.027 412.718 156.515C407.791 155.531 403.803 151.425 403.942 146.403L404.927 110.927Z" fill="#84BEFF" stroke="white" stroke-width="7.27692" mask="url(#path-8-inside-1_280_7371)"/>
<mask id="path-9-inside-2_280_7371" fill="white">
<path d="M465.913 283.971C469.17 287.795 468.73 293.572 464.644 296.494C453.011 304.811 439.807 310.739 425.797 313.896C408.822 317.72 391.172 317.362 374.367 312.851C357.561 308.341 342.104 299.813 329.325 288.003C316.547 276.192 306.83 261.453 301.013 245.054C295.195 228.655 293.45 211.088 295.928 193.865C298.407 176.642 305.034 160.279 315.24 146.186C325.445 132.093 338.924 120.691 354.514 112.963C367.381 106.585 381.368 102.866 395.642 101.993C400.656 101.686 404.638 105.894 404.519 110.916L403.681 146.396C403.562 151.419 399.368 155.315 394.398 156.045C388.839 156.861 383.424 158.548 378.356 161.06C370.561 164.924 363.822 170.625 358.719 177.672C353.616 184.718 350.302 192.899 349.063 201.511C347.824 210.122 348.696 218.906 351.605 227.106C354.514 235.305 359.372 242.675 365.762 248.58C372.151 254.485 379.88 258.749 388.282 261.004C396.685 263.26 405.51 263.439 413.998 261.526C419.516 260.283 424.783 258.18 429.614 255.311C433.933 252.745 439.645 253.127 442.902 256.952L465.913 283.971Z"/>
</mask>
<path d="M465.913 283.971C469.17 287.795 468.73 293.572 464.644 296.494C453.011 304.811 439.807 310.739 425.797 313.896C408.822 317.72 391.172 317.362 374.367 312.851C357.561 308.341 342.104 299.813 329.325 288.003C316.547 276.192 306.83 261.453 301.013 245.054C295.195 228.655 293.45 211.088 295.928 193.865C298.407 176.642 305.034 160.279 315.24 146.186C325.445 132.093 338.924 120.691 354.514 112.963C367.381 106.585 381.368 102.866 395.642 101.993C400.656 101.686 404.638 105.894 404.519 110.916L403.681 146.396C403.562 151.419 399.368 155.315 394.398 156.045C388.839 156.861 383.424 158.548 378.356 161.06C370.561 164.924 363.822 170.625 358.719 177.672C353.616 184.718 350.302 192.899 349.063 201.511C347.824 210.122 348.696 218.906 351.605 227.106C354.514 235.305 359.372 242.675 365.762 248.58C372.151 254.485 379.88 258.749 388.282 261.004C396.685 263.26 405.51 263.439 413.998 261.526C419.516 260.283 424.783 258.18 429.614 255.311C433.933 252.745 439.645 253.127 442.902 256.952L465.913 283.971Z" fill="#097EFF" stroke="white" stroke-width="7.27692" mask="url(#path-9-inside-2_280_7371)"/>
</svg>
