<svg width="34" height="33" viewBox="0 0 34 33" fill="none" xmlns="http://www.w3.org/2000/svg">
<g clip-path="url(#clip0_224_13602)">
<path fill-rule="evenodd" clip-rule="evenodd" d="M31.3516 0.166997H2.55279C2.31744 0.166463 2.08429 0.212426 1.86675 0.302247C1.64921 0.392068 1.45155 0.523977 1.28513 0.690399C1.1187 0.856822 0.986794 1.05448 0.896974 1.27202C0.807153 1.48957 0.76119 1.72271 0.761723 1.95807V30.7569C0.761723 31.7485 1.56113 32.5479 2.55279 32.5479H18.0531V20.0064H13.8234V15.1493H18.0531V11.5408C18.0531 7.35354 20.6234 5.08688 24.3351 5.08688C26.1059 5.08688 27.6602 5.19414 28.1135 5.28116V9.64247H25.5008C23.4709 9.64247 23.1046 10.5916 23.1046 12.0164V15.1472H27.9192L27.2918 20.0044H23.1046V32.5479H31.3516C32.3433 32.5479 33.1427 31.7485 33.1427 30.7569V1.95807C33.1432 1.72271 33.0972 1.48957 33.0074 1.27202C32.9176 1.05448 32.7857 0.856822 32.6193 0.690399C32.4528 0.523977 32.2552 0.392068 32.0376 0.302247C31.8201 0.212426 31.587 0.166463 31.3516 0.166997V0.166997Z" fill="black"/>
</g>
<defs>
<clipPath id="clip0_224_13602">
<rect width="32.381" height="32.381" fill="white" transform="translate(0.761719 0.166992)"/>
</clipPath>
</defs>
</svg>
