<svg width="33" height="33" viewBox="0 0 33 33" fill="none" xmlns="http://www.w3.org/2000/svg">
<g clip-path="url(#clip0_224_13609)">
<path fill-rule="evenodd" clip-rule="evenodd" d="M30.2699 0.166992C31.5854 0.166992 32.6661 1.20318 32.6661 2.49842V30.2165C32.6661 31.4915 31.5874 32.5479 30.2699 32.5479H2.68135C1.36587 32.5479 0.285156 31.4895 0.285156 30.2165V2.49842C0.285156 1.20318 1.36385 0.166992 2.68135 0.166992H30.2699ZM7.49599 10.2051C8.22448 10.1855 8.91656 9.88232 9.42489 9.36013C9.93322 8.83793 10.2177 8.13795 10.2177 7.40919C10.2177 6.68044 9.93322 5.98046 9.42489 5.45826C8.91656 4.93607 8.22448 4.6329 7.49599 4.6133C5.9417 4.6133 4.71123 5.86604 4.71123 7.39806C4.71123 8.95235 5.9417 10.2051 7.49599 10.2051ZM27.8737 19.292C27.8737 15.127 26.9893 11.9314 22.1099 11.9314C19.7785 11.9314 18.2242 13.2064 17.5766 14.4146H17.5118V12.2997H12.9137V27.7556H17.7061V20.1137C17.7061 18.106 18.0724 16.1409 20.5779 16.1409C23.0388 16.1409 23.0813 18.4521 23.0813 20.2432V27.7556H27.8737V19.292ZM5.07754 27.7576H9.89218V12.2997H5.07754V27.7576Z" fill="black"/>
</g>
<defs>
<clipPath id="clip0_224_13609">
<rect width="32.381" height="32.381" fill="white" transform="translate(0.285156 0.166992)"/>
</clipPath>
</defs>
</svg>
