<svg width="33" height="33" viewBox="0 0 33 33" fill="none" xmlns="http://www.w3.org/2000/svg">
<g clip-path="url(#clip0_224_13599)">
<path d="M32.3749 6.31578C31.1839 6.84501 29.9058 7.20221 28.56 7.36108C29.9311 6.53941 30.9845 5.2381 31.4814 3.68786C30.1963 4.44679 28.7765 5.00334 27.2638 5.29882C26.0515 4.00864 24.3252 3.20215 22.4147 3.20215C18.7455 3.20215 15.7736 6.17512 15.7736 9.84328C15.7736 10.3634 15.8313 10.8714 15.9456 11.3571C10.4236 11.0778 5.53006 8.4337 2.25452 4.41643C1.6828 5.39798 1.35393 6.53941 1.35393 7.75572C1.35393 10.0629 2.52774 12.0938 4.30869 13.2858C3.21988 13.2504 2.19583 12.9519 1.3003 12.456V12.537C1.3003 15.7569 3.5872 18.4414 6.62696 19.0516C6.07042 19.2034 5.48351 19.2844 4.87637 19.2844C4.44833 19.2844 4.03345 19.2439 3.62869 19.166C4.47262 21.803 6.9275 23.7236 9.83167 23.7782C7.55994 25.5592 4.69625 26.6217 1.58464 26.6217C1.04833 26.6217 0.519107 26.5913 0 26.5306C2.9406 28.4127 6.43167 29.5117 10.1828 29.5117C22.3985 29.5117 29.0801 19.3926 29.0801 10.6144C29.0801 10.327 29.072 10.0396 29.0599 9.75423C30.3582 8.81822 31.4834 7.64947 32.3749 6.31578V6.31578Z" fill="black"/>
</g>
<defs>
<clipPath id="clip0_224_13599">
<rect width="32.381" height="32.381" fill="white" transform="translate(0 0.166992)"/>
</clipPath>
</defs>
</svg>
